<?xml version="1.0" standalone="no"?>
<!DOCTYPE svg PUBLIC "-//W3C//DTD SVG 1.1//EN" "http://www.w3.org/Graphics/SVG/1.1/DTD/svg11.dtd" >
<svg xmlns="http://www.w3.org/2000/svg">
<metadata>
Created by FontPrep 20130207 at Wed Mar 19 13:58:45 2014
 By Daniel Pizarro
</metadata>
<defs>
<font id="8badd067a826cd6b7151eaf45d9d75ba" horiz-adv-x='1024' >
  <font-face 
    font-family="CFPBMinicons"
    font-weight="400"
    font-stretch="normal"
    units-per-em="2048"
    panose-1="0 0 0 0 0 0 0 0 0 0"
    ascent="1536"
    descent="-512"
    bbox="0 -293 3218.48 1802"
    underline-thickness="102"
    underline-position="-102"
    unicode-range="U+0020-E641"
  />
<missing-glyph horiz-adv-x="571" 
 />
    <glyph glyph-name=".notdef" horiz-adv-x="571" 
 />
    <glyph glyph-name=".null" horiz-adv-x="0" 
 />
    <glyph glyph-name="nonmarkingreturn" horiz-adv-x="571" 
 />
    <glyph glyph-name="space" unicode=" " horiz-adv-x="571" 
 />
    <glyph glyph-name="space" unicode="&#xa0;" horiz-adv-x="571" 
 />
    <glyph glyph-name="zero" unicode="0" horiz-adv-x="1337" 
 />
    <glyph glyph-name="one" unicode="1" horiz-adv-x="1337" 
 />
    <glyph glyph-name="two" unicode="2" horiz-adv-x="1337" 
 />
    <glyph glyph-name="three" unicode="3" horiz-adv-x="1337" 
 />
    <glyph glyph-name="four" unicode="4" horiz-adv-x="1337" 
 />
    <glyph glyph-name="five" unicode="5" horiz-adv-x="1337" 
 />
    <glyph glyph-name="six" unicode="6" horiz-adv-x="1337" 
 />
    <glyph glyph-name="seven" unicode="7" horiz-adv-x="1337" 
 />
    <glyph glyph-name="eight" unicode="8" horiz-adv-x="1337" 
 />
    <glyph glyph-name="nine" unicode="9" horiz-adv-x="1337" 
 />
    <glyph glyph-name="left" unicode="&#xe000;" horiz-adv-x="1302" 
d="M950 1695q90 0 152 -61t64 -155q1 -93 -62 -154l-519 -519l520 -520q63 -63 63 -155t-64 -153t-154 -61q-88 0 -152 64l-673 673q-64 64 -64 152t64 154l334 334q63 63 156 154t137 137q46 45 62 61t55 33q39 16 81 16z" />
    <glyph glyph-name="left_alt" unicode="&#xe001;" 
d="M606 840q-45 -45 -45 -109.5t45 -107.5l476 -477q44 -44 109 -44t109.5 45.5t44.5 108.5t-46 107l-366 368l366 367q45 47 45 108.5t-34 96.5q-56 58 -120 58t-108 -46q-1 0 -21.5 -21t-54 -54t-76.5 -76t-88 -87zM0 731.5q0 141.5 36.5 272.5t103.5 244.5t160 207
t207 160t244.5 103t272.5 36.5t272.5 -36.5t244.5 -103t207 -160t160 -207t103.5 -244.5t36.5 -272.5t-36.5 -272.5t-103.5 -244.5t-160 -207t-207 -160t-244.5 -103.5t-272.5 -37t-272.5 37t-244.5 103.5t-207 160t-160 207t-103.5 244.5t-36.5 272.5z" />
    <glyph glyph-name="right" unicode="&#xe002;" horiz-adv-x="1302" 
d="M505 -19q-64 -64 -153 -64t-153 63t-64 153t64 154l519 519l-520 520q-64 64 -64 154t64 152q64 63 154 63t153 -64l673 -673q63 -63 63 -154t-63 -153q-187 -187 -351 -349t-242 -242q-78 -79 -80 -79z" />
    <glyph glyph-name="right_alt" unicode="&#xe003;" 
d="M1442 623q45 45 45 107.5t-45 109.5l-476 477q-46 44 -109.5 44t-108.5 -45t-45 -109t46 -108l366 -368l-366 -366q-45 -45 -45 -110t44 -109t107.5 -44t110.5 45l21 22q21 21 54.5 54t76.5 76t88 87zM2048 731.5q0 -141.5 -36.5 -272.5t-103.5 -244.5t-160 -207
t-207 -160t-244.5 -103.5t-272.5 -37t-272.5 37t-244.5 103.5t-207 160t-160 207t-103.5 244.5t-36.5 272.5t36.5 272.5t103.5 244.5t160 207t207 160t244.5 103t272.5 36.5t272.5 -36.5t244.5 -103t207 -160t160 -207t103.5 -244.5t36.5 -272.5z" />
    <glyph glyph-name="up" unicode="&#xe004;" horiz-adv-x="1901" 
d="M1840 366q0 -89 -63 -153t-154 -64t-153 64l-519 518l-520 -520q-63 -64 -153 -64t-153 64t-63 154t64 154l673 673q61 61 151 62t155 -62q277 -277 397 -398t170 -171l93 -93q75 -75 75 -164z" />
    <glyph glyph-name="up_alt" unicode="&#xe005;" 
d="M439 673q-45 -45 -45 -109.5t46 -108.5q46 -45 108 -45t108 46l368 367l367 -367q45 -45 108.5 -45t109 45.5t45.5 108t-46 108.5l-21 21q-21 21 -93.5 94.5t-124.5 124.5l-236 237q-46 44 -109 44t-109 -44zM1024 1755q142 0 272.5 -36.5t244.5 -103t207 -160t160 -207
t103.5 -244.5t36.5 -272.5t-36.5 -272.5t-103.5 -244.5t-160 -207t-207 -160t-244.5 -103.5t-272.5 -37t-272.5 37t-244.5 103.5t-207 160t-160 207t-103.5 244.5t-36.5 272.5t36.5 272.5t103.5 244.5t160 207t207 160t244.5 103t272.5 36.5z" />
    <glyph glyph-name="down" unicode="&#xe006;" horiz-adv-x="1901" 
d="M126 798q-64 64 -64 153t61 151t154 64q92 1 155 -62l519 -519l520 520q63 63 154 63t153 -64t62 -154q0 -88 -64 -152l-673 -673q-64 -64 -154 -64t-152 64l-334 334q-63 63 -160 162t-137 137q-40 39 -40 40z" />
    <glyph glyph-name="down_alt" unicode="&#xe007;" 
d="M915 313q42 -44 108 -44t110 44l476 477q45 47 45 108.5t-34 96.5q-56 58 -120 58t-108 -46l-368 -367l-368 367q-46 44 -109 44t-108 -45t-45 -109.5t46 -106.5q0 -1 5 -6l55 -55q49 -49 91.5 -92t87.5 -87zM1024 -293q-142 0 -272.5 37t-244.5 103.5t-207 160t-160 207
t-103.5 244.5t-36.5 272.5t36.5 272.5t103.5 244.5t160 207t207 160t244.5 103t272.5 36.5t272.5 -36.5t244.5 -103t207 -160t160 -207t103.5 -244.5t36.5 -272.5t-36.5 -272.5t-103.5 -244.5t-160 -207t-207 -160t-244.5 -103.5t-272.5 -37z" />
    <glyph glyph-name="arrow_left" unicode="&#xe008;" horiz-adv-x="1976" 
d="M1810 951q69 0 117.5 -48.5t48.5 -117.5t-49 -116.5t-117 -47.5h-1172q123 -126 229.5 -230t119.5 -119q14 -14 25.5 -44t11.5 -62t-11.5 -63t-47.5 -67t-104.5 -36t-116.5 48q-3 2 -31 30t-73 72t-100.5 100t-151.5 152t-266 268q-49 49 -49 116.5t49 116.5
q173 171 309 307l312 312q49 49 116.5 49t116 -48.5t48.5 -117t-48 -116.5l-338 -338h1172z" />
    <glyph glyph-name="arrow_left_alt" unicode="&#xe009;" 
d="M916 1245q-44 0 -76 -32q-2 -1 -147 -147l-259 -259q-32 -32 -32 -76t32 -76l406 -406q32 -32 76 -32t76 32t32 76.5t-32 76.5q-2 1 -12.5 12t-26.5 26.5t-21 20.5l-54 54q-48 47 -108 108h767q68 0 88 43t20 65q0 43 -31 75.5t-77 32.5h-766l110 110q21 21 41 40.5
t24 22.5l25 26q21 21 21 23q32 32 32 76t-32 76t-76 32zM176 1308.5q176 298.5 441 372.5t407 74t272.5 -36.5t301.5 -136.5t310.5 -336t139.5 -515t-139 -514.5t-374 -372.5t-511 -137t-511 137t-374 372.5t-139 514.5t176 577.5z" />
    <glyph glyph-name="arrow_right" unicode="&#xe010;" horiz-adv-x="1976" 
d="M1233 49q-49 -49 -116.5 -49t-116 48.5t-48.5 117t48 116.5q1 1 21.5 22t52.5 53t71 70.5t76 76t68.5 68.5t48.5 49h-1172q-69 0 -117.5 47t-48.5 116.5t48.5 118t117.5 48.5h1172q-91 90 -166 165l-173 173q-47 47 -47 117t47.5 117.5t116 47.5t116.5 -48l317 -316
q135 -136 305 -305q49 -49 49 -116.5t-49 -116.5l-256 -255q-255 -256 -310 -310t-55 -55z" />
    <glyph glyph-name="arrow_right_alt" unicode="&#xe011;" 
d="M1132 218q44 0 76 32l18 18q18 18 47 46.5t38 37.5l102 102q88 88 201 202q32 32 32 76t-32 76l-406 406q-32 32 -76 32t-76 -32t-32 -78t27.5 -72t43 -42t35.5 -35.5t54 -53.5t94 -93h-767q-69 0 -88.5 -44t-19.5 -66q0 -42 31 -74t77 -32h766l-110 -110
q-21 -21 -53 -52t-61 -62q-29 -30 -29 -74t32 -76t76 -32zM2048 732q0 -142 -36.5 -272.5t-103.5 -244t-160 -207.5t-207 -160.5t-244.5 -103.5t-272.5 -37t-272.5 37t-244.5 103.5t-207 160.5t-160 207.5t-103.5 244t-36.5 272t36.5 272.5t103.5 244.5t160 207t207 160
t244.5 103t272.5 36.5t272.5 -36.5t244.5 -103t207 -160t160 -207t103.5 -244t36.5 -272.5z" />
    <glyph glyph-name="arrow_up" unicode="&#xe012;" horiz-adv-x="1571" 
d="M1571 824q0 -68 -48.5 -116.5t-117 -48.5t-116.5 48q-1 1 -21.5 22t-52.5 53t-71 70.5t-76 76t-44 45.5l-73 72v-1173q0 -107 -65 -136.5t-116.5 -29.5t-100 48.5t-48.5 117.5v1173q-93 -92 -145 -144t-81.5 -82t-53.5 -54.5t-28 -28.5l-31 -31q-47 -47 -117 -47
t-117.5 47.5t-47.5 116t48 116.5q2 2 30 31t72 73t129.5 130.5t390.5 387.5q49 49 116.5 49t116.5 -49q171 -173 268 -269t152.5 -152.5t66.5 -67.5l71 -71q60 -60 61 -60q49 -49 49 -117z" />
    <glyph glyph-name="arrow_up_alt" unicode="&#xe013;" 
d="M1537 839q0 44 -32 76l-18 19q-18 18 -46 46.5t-65 65t-100 99.5t-177 176q-32 32 -76 32t-76 -32l-405 -406q-32 -32 -32 -76t32 -76t76.5 -32t55.5 11l43 43q32 32 51 52t40 41l107 107v-767q0 -43 31.5 -75t65.5 -32q57 0 88 32t31 75v766l110 -110q21 -21 41 -40.5
t35.5 -35t25 -25.5t10.5 -10q32 -32 76 -32t76 32t32 76zM1024 1755q277 0 512 -137t373.5 -372t138.5 -514.5t-138.5 -514.5t-374 -372.5t-511.5 -137.5t-511 137t-374 372.5t-139 515t139 515t373.5 372t511.5 136.5z" />
    <glyph glyph-name="arrow_down" unicode="&#xe014;" horiz-adv-x="1571" 
d="M621 1590q0 70 47.5 117.5t116 47.5t117.5 -47.5t49 -117.5v-1173q188 190 221.5 223t39.5 40l40 40q35 34 48 48t43.5 24.5t62.5 10.5t62.5 -11t66.5 -47t36 -105t-48 -117q-2 -3 -30.5 -31t-72.5 -72.5t-172 -171.5t-346 -346q-49 -49 -116.5 -49t-116.5 49
q-441 439 -503 502t-69 70l-48 48q-49 49 -49 116.5t48.5 116t117 48.5t116.5 -48q1 -1 22 -21.5t53 -52.5t70.5 -71t76 -76t68.5 -68.5t49 -48.5v1173z" />
    <glyph glyph-name="arrow_down_alt" unicode="&#xe015;" 
d="M511 623q0 -44 32 -76q0 -1 5 -5l46 -46q41 -42 78.5 -78.5t99.5 -99.5t177 -176q32 -32 76 -32t76 32l405 405q32 32 32 76t-32 76t-76.5 32t-76.5 -32l-114 -114q-47 -48 -106 -107v767q0 43 -32 75t-66 32q-57 0 -87.5 -32t-30.5 -75v-766l-110 110q-21 21 -41 40.5
t-24 22.5l-37 38l-10 9q-32 32 -76 32t-76 -32t-32 -76zM1024 -293q-142 0 -272 37t-244 103.5t-207.5 160t-160.5 207t-103.5 244.5t-36.5 272.5t36.5 272.5t103.5 244.5t160.5 207t207.5 160t244 103t272 36.5t272.5 -36.5t244.5 -103t207 -160t160 -207t103.5 -244.5
t36.5 -272.5t-36.5 -272.5t-103.5 -244.5t-160 -207t-207 -160t-244.5 -103.5t-272.5 -37z" />
    <glyph glyph-name="check" unicode="&#xe100;" horiz-adv-x="1808" 
d="M799 85q-50 -69 -137 -69t-136 69l-353 475q-42 58 -32.5 126.5t67.5 112.5q90 65 153.5 29t84.5 -65l216 -291l700 942q39 54 108.5 66t127.5 -29t68.5 -111.5t-31.5 -129.5z" />
    <glyph glyph-name="check_alt" unicode="&#xe101;" 
d="M910 211l592 798q47 66 7 134t-106.5 59t-93.5 -49l-496 -667l-154 207q-50 64 -127.5 43.5t-87 -84t20.5 -105.5l250 -336q36 -49 96.5 -49t98.5 49zM1024 1755q142 0 272.5 -36.5t244.5 -103t207 -160t160 -207t103.5 -244.5t36.5 -272.5t-36.5 -272.5t-103.5 -244.5
t-160 -207t-207 -160t-244.5 -103.5t-272.5 -37t-272.5 37t-244.5 103.5t-207 160t-160 207t-103.5 244.5t-36.5 272.5t36.5 272.5t103.5 244.5t160 207t207 160t244.5 103t272.5 36.5z" />
    <glyph glyph-name="exclamation" unicode="&#xe102;" horiz-adv-x="642" 
d="M473 1538.5q65 -70.5 57 -154.5l-71 -853q-4 -56 -47.5 -95.5t-100.5 -35.5q-57 5 -92 42.5t-37 88.5l-70 853q-6 86 56.5 155.5t151.5 69.5q88 0 153 -70.5zM459 144v-27q0 -93 -55 -116.5t-98 -23.5t-83.5 40.5t-40.5 99.5v27q0 58 40 99.5t98.5 41.5t98.5 -41.5
t40 -99.5z" />
    <glyph glyph-name="exclamation_alt" unicode="&#xe103;" 
d="M885.5 1412.5q-57.5 -61.5 -51.5 -141.5l63 -777q2 -47 35 -81.5t70 -36.5q63 -4 104 30.5t45 87.5l63 777q6 79 -52.5 141t-138.5 62t-137.5 -61.5zM1151 142q0 51 -38 89t-89.5 38t-89 -37.5t-37.5 -89.5v-25q0 -55 36.5 -91.5t90 -36.5t90.5 37t37 91v25zM1024 1755
q142 0 272.5 -36.5t244.5 -103t207 -160t160 -207t103.5 -244.5t36.5 -272.5t-36.5 -272.5t-103.5 -244.5t-160 -207t-207 -160t-244.5 -103.5t-272.5 -37t-272.5 37t-244.5 103.5t-207 160t-160 207t-103.5 244.5t-36.5 272.5t36.5 272.5t103.5 244.5t160 207t207 160
t244.5 103t272.5 36.5z" />
    <glyph glyph-name="questionIcon" unicode="&#xe104;" horiz-adv-x="1076" 
d="M540 296q32 0 61.5 -12.5t51 -33.5t34 -50.5t12.5 -78.5t-46 -96.5t-112 -47.5q-105 0 -133.5 63.5t-28.5 96.5t13 62.5t34.5 50.5t51.5 33.5t62 12.5zM842 1483q124 -126 124 -303t-72 -263.5t-100 -116.5q-66 -71 -94 -119.5t-28 -133.5t-52 -108t-80 -23
q-55 0 -94.5 37.5t-39.5 109.5q0 138 50 228.5t143 186.5q25 29 45 52t39.5 58t19.5 80q0 79 -48.5 127.5t-114.5 48.5t-115 -48.5t-49 -108.5t-28 -89t-52.5 -39.5t-65 -10.5t-80 38t-39.5 110t33.5 150.5t125.5 170.5t270 92t302 -126z" />
    <glyph glyph-name="question_alt" unicode="&#xe105;" 
d="M1369 1050q0 70 -29 137.5t-80 118.5t-118.5 80t-183 29t-224 -110t-108.5 -262q0 -48 25.5 -72.5t46 -33.5t56.5 -9t69.5 34t33.5 72q0 68 41.5 109t85.5 41t69 -11t44.5 -30.5t30 -45t10.5 -66.5t-20 -75t-58 -75q-89 -95 -133.5 -176t-44.5 -211q0 -46 25.5 -71.5
t46 -35t56.5 -9.5t69.5 35t33.5 78q0 74 25.5 119.5t64.5 86.5t66 72.5t49.5 71.5t36.5 89.5t14 119.5zM997.5 -2q28.5 0 54 10.5t44 29.5t29.5 44t11 54t-11 54.5t-29.5 44.5t-44 29.5t-54 10.5t-53.5 -10.5t-44 -29.5t-30 -44.5t-11 -54.5t11 -54t30 -44t44 -29.5
t53.5 -10.5zM1024 1755q142 0 272.5 -36.5t302 -136.5t310.5 -335.5t139 -514.5t-175.5 -577t-441 -373t-407.5 -75t-272.5 37t-244.5 103.5t-207 160.5t-160 207.5t-103.5 244t-36.5 272t36.5 272.5t103.5 244.5t160 207t207 160t244.5 103t272.5 36.5z" />
    <glyph glyph-name="remove" unicode="&#xe106;" horiz-adv-x="1474" 
d="M1313 243q47 -47 47 -112t-45 -108t-111 -44q-66 -2 -110 45l-358 357l-355 -357q-44 -44 -92 -45q-85 -2 -128 45q-47 47 -47 111t46 110l357 355l-357 358q-44 44 -45 91q-2 82 43 127t93 46q83 2 128 -45l358 -356l357 356q69 72 168 34q61 -23 85 -85t0 -117
q-11 -29 -34 -51l-356 -358z" />
    <glyph glyph-name="remove_alt" unicode="&#xe107;" 
d="M1536 1102q0 39 -9.5 62t-37.5 51t-81 28t-90 -37l-294 -294l-294 294q-37 37 -107 37t-90.5 -51t-20.5 -92t38 -75l293 -294l-293 -293q-38 -36 -38 -91.5t38 -89.5q36 -38 90 -38t90 38l294 294l294 -294q36 -38 105.5 -38t91 52t21.5 90.5t-38 76.5l-292 293l292 294
q38 38 38 77zM1024 1755q142 0 272.5 -36.5t244.5 -103t207 -160t160 -207t103.5 -244.5t36.5 -272.5t-36.5 -272.5t-103.5 -244.5t-160 -207t-207 -160t-244.5 -103.5t-272.5 -37t-272.5 37t-244.5 103.5t-207 160t-160 207t-103.5 244.5t-36.5 272.5t36.5 272.5
t103.5 244.5t160 207t207 160t244.5 103t272.5 36.5z" />
    <glyph glyph-name="plus_sign" unicode="&#xe108;" horiz-adv-x="1630" 
d="M155 638q-65 0 -110 45t-45 110t44.5 110.5t110.5 45.5h506v505q0 64 44 109.5t109 45.5t111 -44.5t46 -110.5v-505h504q67 0 111.5 -46t44.5 -94q0 -81 -45 -126t-111 -45h-504v-505q0 -103 -62 -129t-110.5 -26t-93 44.5t-44.5 110.5l-2 505h-504z" />
    <glyph glyph-name="plus_sign_alt" unicode="&#xe109;" 
d="M1567 603q52 0 90 38t38 90.5t-37.5 90t-90.5 37.5h-415v415q0 51 -27.5 79.5t-51 38.5t-63.5 10t-77 -38.5t-37 -89.5v-415h-415q-53 0 -80 -27t-37.5 -50.5t-10.5 -63t38 -77.5t90 -38h415v-414q0 -53 37.5 -90.5t90.5 -37.5t90.5 37.5t37.5 90.5v414h415zM1024 1755
q142 0 272.5 -36.5t244.5 -103t207 -160t160 -207t103.5 -244.5t36.5 -272.5t-36.5 -272.5t-103.5 -244.5t-160 -207t-207 -160t-244.5 -103.5t-272.5 -37t-272.5 37t-244.5 103.5t-207 160t-160 207t-103.5 244.5t-36.5 272.5t36.5 272.5t103.5 244.5t160 207t207 160
t244.5 103t272.5 36.5z" />
    <glyph glyph-name="minus_sign" unicode="&#xe110;" horiz-adv-x="1630" 
d="M155 638q-65 0 -110 45t-45 110t44.5 110.5t110.5 45.5h1320q67 0 111.5 -46t44.5 -94q0 -81 -45 -126t-111 -45h-1320z" />
    <glyph glyph-name="minus_sign_alt" unicode="&#xe111;" 
d="M1567 603q52 0 90 38t38 90.5t-37.5 90t-90.5 37.5h-1086q-53 0 -80 -27t-37.5 -50.5t-10.5 -63t38 -77.5t90 -38h1086zM1024 1755q142 0 272.5 -36.5t244.5 -103t207 -160t160 -207t103.5 -244.5t36.5 -272.5t-36.5 -272.5t-103.5 -244.5t-160 -207t-207 -160
t-244.5 -103.5t-272.5 -37t-272.5 37t-244.5 103.5t-207 160t-160 207t-103.5 244.5t-36.5 272.5t36.5 272.5t103.5 244.5t160 207t207 160t244.5 103t272.5 36.5z" />
    <glyph glyph-name="loading" unicode="&#xe112;" horiz-adv-x="2117" 
d="M218 1056q-49 28 -62 81.5t18 105.5q30 52 83.5 67.5t102 -13t61.5 -82t-12 -95.5q-24 -42 -45.5 -57.5t-59 -25t-86.5 18.5zM1518 -167q-76 0 -109 55q-34 55 -22 110t58 81q45 26 83 57q59 48 114 42.5t81 -37.5q25 -32 36.5 -70.5t-13.5 -88.5t-160 -130
q-34 -20 -68 -19zM1985 1369h-124q162 -202 203 -434q12 -52 -23 -106t-108 -54q-47 0 -84.5 29.5t-43.5 61.5q-34 194 -166 352v-194q0 -56 -39 -95t-94.5 -39t-95 39.5t-39.5 94.5v479q0 54 40 94t94 40h480q56 0 94.5 -40t38.5 -95.5t-40 -94t-93 -38.5zM612 1366
q-78 0 -116 65q-29 46 -16 100.5t61 82.5q87 53 147 7.5t68 -116.5t-76 -121q-32 -18 -68 -18zM1880 238q-34 0 -59 11t-43 30.5t-27 43.5t-9 50.5t17 64.5t29 80q18 69 64.5 97.5t87.5 17.5q69 -18 96 -65t15 -94q-43 -177 -90 -206.5t-81 -29.5zM304 741v-21q0 -22 1 -38
q3 -44 -35 -85.5t-93 -43.5h-6q-83 0 -107.5 50.5t-25.5 76.5l-1 35v22q0 86 53 110t93.5 24t80.5 -38.5t40 -91.5zM1064 -293h-52q-51 0 -91.5 42t-38.5 97.5t43 93t86 36.5t68.5 -1t44.5 2t46 -6.5t44.5 -25.5t31.5 -40.5t16 -65t-33 -83.5t-92 -46l-38 -2t-35 -1z
M1061 1488h-8q-84 0 -114 64t-4.5 132t114.5 71h12q56 0 84.5 -28.5t38.5 -53t10 -67t-40 -80.5t-93 -38zM653 -193q-51 0 -147 64q-45 29 -54.5 68.5t-5 66t26.5 60t75.5 47t102.5 -17.5q15 -9 30.5 -18.5t35.5 -20.5q46 -25 62.5 -77.5t-9.5 -99.5q-38 -72 -117 -72z
M200 177q-60 82 -62.5 121.5t5 64t24.5 45.5t53 39.5t89 2.5t80 -66q13 -25 31 -56q19 -30 23.5 -56t-1 -50.5t-33 -65.5t-98.5 -41q-72 0 -111 62z" />
    <glyph glyph-name="loading_alt" unicode="&#xe113;" 
d="M1579 1113q35 0 60.5 24.5t25.5 60.5t-25 60.5t-61 24.5h-306q-35 0 -60.5 -24.5t-25.5 -59.5v-308q0 -35 24.5 -59.5t60.5 -24.5t61 24.5t25 59.5v125q80 -92 107 -226q4 -20 27.5 -38.5t41.5 -18.5q18 1 41 5t42 33t15 54t-6.5 32t-13.5 48q-28 105 -113 208h80z
M1587 440q53 113 24 161.5t-84.5 40t-70.5 -62.5q-6 -18 -11 -35.5t-17 -42.5t5.5 -70t75.5 -44q57 2 78 53zM1406 200q27 23 30.5 58.5t-19.5 61.5t-57.5 30t-60.5 -18t-52 -37q-85 -52 -32 -134q53 -81 191 39zM1012 220l-49 1q-54 3 -80 -48.5t5.5 -86.5t66.5 -36l34 -1
q21 0 53 2t54.5 28.5t19.5 62.5t-30 59t-49 21t-25 -2zM802 159q16 32 6 65.5t-36 45.5t-50 30q-26 16 -60.5 9t-53.5 -37t-12 -64.5t33 -51.5q65 -43 105 -43q41 0 68 46zM498 311q34 1 60 17t34 50.5t-8 59.5q-16 24 -30 50q-12 26 -46 36.5t-66 -5.5t-42 -50t7 -67
t37 -62t54 -29zM418 591h5q56 3 69 37.5t12 51.5v29q0 35 -25 60t-60.5 25t-60.5 -25t-25 -60v-14l1 -23q2 -34 26.5 -57.5t57.5 -23.5zM426.5 1047q-32.5 -24 -19 -72t42.5 -64q30 -15 65 -8t55 47q29 49 -6.5 94.5t-70 36t-67 -33.5zM626 1152q28 -41 63 -41q35 1 63 17
t38 49.5t-8 64.5t-50.5 40.5t-61.5 -6.5q-43 -22 -52.5 -58.5t8.5 -65.5zM983 1189h6q35 0 59.5 25t24.5 61t-24.5 60.5t-59.5 24.5h-8q-56 -3 -77 -55t12.5 -84t66.5 -32zM1024 1755q142 0 272.5 -36.5t301.5 -136.5t310.5 -336t139.5 -515t-139 -514.5t-374 -372.5
t-511 -137t-511 137t-374 372.5t-139 514.5t176 577.5t441 372.5t407 74z" />
    <glyph glyph-name="youtube" unicode="&#xe200;" horiz-adv-x="2072" 
d="M1571 -55q154 0 152 157v26h-105v-23q0 -45 -10 -58t-34 -13t-35 14q-10 14 -10 57v96h194v130q1 73 -37 111t-108 38t-112 -40t-42 -109v-229q0 -73 39 -115t108 -42zM1273 -48q97 0 97 112v282q0 128 -99 128q-50 0 -90 -48v222h-103v-689h103v39q41 -46 92 -46z
M782 -49q61 0 117 64v-56h102v508h-102v-386q-28 -35 -59 -38q-29 0 -27 35v389h-102v-425q0 -91 71 -91zM666 648h-352v-99h119v-590h114v590h119v99zM1674 778q150 0 258.5 -107t108.5 -261v-295q0 -152 -108.5 -259t-258.5 -107h-1275q-151 0 -259.5 107t-108.5 259v295
q0 154 108.5 261t259.5 107h1275zM1529 331q0 60 44.5 60t44.5 -60v-51h-89v51zM1223 393q43 0 43 -52v-263q0 -46 -36 -46q-30 0 -49 23v318q20 20 42 20zM695 955h-129v301l-155 458h131l83 -303h8l80 303h132l-150 -444v-315zM1279 1047v468h114v-429q0 -38 30 -38t68 42
v425h115v-560h-115v62q-67 -71 -132 -71q-80 0 -80 101zM1070 1391q0 41 -50 41t-49 -41v-305q0 -23 13 -35.5t34 -12.5q52 0 52 48v305zM854 1387q0 64 45.5 103t120.5 39t121 -41t45 -104v-289q0 -72 -44 -113t-120 -41t-124 42q-45 42 -44 113v291z" />
    <glyph glyph-name="youtube_alt" unicode="&#xe201;" horiz-adv-x="1755" 
d="M1027 477q0 34 -27 34q-14 0 -29 -15v-206q15 -14 34 -16q24 0 22 30v173zM1032 563q64 0 64 -84v-184q0 -73 -61 -73q-39 0 -64 31v-27h-66v452h66v-147q30 32 61 32zM1259 470q1 40 -29 40t-30 -40v-33h59v33zM1327 320q0 -103 -100 -103q-47 1 -71 29t-25 74v150
q-1 43 27 70t74 27q95 0 95 -97v-85h-127v-63q0 -30 7 -38t23 -8t23 9q6 15 6 37v15h68v-17zM406 678h231v-65h-78v-387h-76v387h-77v65zM731 304q0 -22 20 -22t38 25v252h67v-333h-67v37q-37 -41 -77 -41q-47 0 -47 59v278h66v-255zM1535 522q0 100 -71 169.5t-168 69.5
h-835q-99 0 -169.5 -69t-70.5 -170v-193q0 -100 70 -170t170 -70h835q98 0 168.5 70.5t70.5 169.5v193zM569 878h86v207l97 289h-86l-51 -198h-5l-55 198h-85l99 -299v-197zM759 970q0 -47 28.5 -74t78.5 -27t81 26q29 27 29 74v190q0 41 -30 67t-79 28q-48 0 -78 -26
t-30 -67v-191zM1112 963v282h-75v-307q0 -66 52 -66q41 0 87 46v-40h74v367h-74v-278q-25 -29 -45 -29q-19 0 -19 25zM1755 1609v-1755h-1755v1755h1755zM899 963q0 -30 -32 -30t-32 30v200q0 10 8 19q9 8 23 8q33 0 33 -27v-200z" />
    <glyph glyph-name="linkedin" unicode="&#xe202;" horiz-adv-x="1554" 
d="M870 1001v-140q49 72 115.5 118t166.5 46q190 0 296 -114.5t106 -336.5v-574h-332v536q0 225 -171 225q-93 0 -133.5 -58t-44 -89t-3.5 -54v-560h-332q1 254 1 404v100l-1 497h332zM322.5 1434.5q51.5 -50.5 52.5 -123.5t-51 -123t-138 -50h-2q-81 0 -132.5 50t-51.5 124
t53 123.5t136 49.5q82 0 133.5 -50.5zM21 1001h332v-1001h-332v1001zM870 861q0 -3 -3 -4h3v4z" />
    <glyph glyph-name="linkedin_alt" unicode="&#xe203;" horiz-adv-x="1755" 
d="M1047 743q104 0 104 -138v-331h204v353q0 207 -92.5 242.5t-138.5 35.5q-76 0 -117.5 -28.5t-71.5 -73.5v87h-205v-30l1 -299q0 -130 -1 -287h205v344q0 36 9 57t35 44.5t68 23.5zM515 975q54 0 84.5 31t30.5 76t-30.5 75t-83 30t-84 -29.5t-31.5 -75.5t30.5 -76.5
t81.5 -30.5h2zM617 890h-204v-616h204v616zM0 1609h1755v-1755h-1755v1755z" />
    <glyph glyph-name="facebook" unicode="&#xe204;" horiz-adv-x="915" 
d="M570 1288v-232h345l-14 -319h-331v-883h-336v883h-234v319h234v271q0 174 115.5 291.5t340.5 117.5q65 0 224 -11l-10 -299h-61l-140 1q-115 0 -124 -53.5t-9 -85.5z" />
    <glyph glyph-name="facebook_alt" unicode="&#xe205;" horiz-adv-x="1755" 
d="M1247 850v169q0 53 19 77.5t78 24.5h147l6 216q-22 1 -56 5t-114 3q-157 0 -241 -85t-84 -212v-198h-170v-231h170v-642h245v642h240l11 231h-251zM0 1609h1755v-1755h-1755v1755z" />
    <glyph glyph-name="flickr" unicode="&#xe206;" horiz-adv-x="1500" 
d="M1168 1118q69 0 129.5 -26.5t105.5 -71.5t71.5 -105.5t26.5 -129t-26.5 -129.5t-71.5 -106t-105.5 -71t-129.5 -26t-129.5 26t-105.5 71t-71.5 106t-26.5 129.5t26.5 129t71.5 105.5t105.5 71.5t129.5 26.5zM333.5 1118q68.5 0 129 -26.5t106 -71.5t71.5 -105.5t26 -129
t-26 -129.5t-71.5 -106t-106 -71t-129 -26t-129.5 26t-106 71t-71.5 106t-26.5 129.5t26.5 129t71.5 105.5t106 71.5t129.5 26.5z" />
    <glyph glyph-name="flickr_alt" unicode="&#xe207;" horiz-adv-x="1755" 
d="M517.5 445q59.5 0 111.5 22t91 61t62 91.5t23 112t-23 111.5t-62 91t-91 61.5t-111.5 22.5t-112 -22.5t-91.5 -61.5t-61 -91t-22 -111.5t22 -112t61 -91.5t91.5 -61t112 -22zM1237.5 445q59.5 0 111.5 22t91 61t62 91.5t23 112t-23 111.5t-62 91t-91 61.5t-111.5 22.5
t-112 -22.5t-91.5 -61.5t-61 -91t-22 -111.5t22 -112t61 -91.5t91.5 -61t112 -22zM0 1609h1755v-1755h-1755v1755z" />
    <glyph glyph-name="twitter" unicode="&#xe208;" horiz-adv-x="1902" 
d="M1669 1051q0 -253 -161.5 -566.5t-440.5 -399t-443 -85.5q-311 0 -574 166q69 -6 89 -6q260 0 459 159q-121 2 -216 74t-129 182q35 -7 77 -7t89 14q-127 26 -211.5 127.5t-84.5 234.5v5q78 -43 167 -47q-74 50 -118.5 130.5t-44.5 179.5t49 183q219 -263 433 -321.5
t329 -64.5q-10 41 -10 101t29 127t108.5 146.5t236.5 79.5t266 -117q136 28 234 91q-44 -136 -162 -205q115 13 213 58q-77 -112 -186 -192q2 -26 2 -47z" />
    <glyph glyph-name="twitter_alt" unicode="&#xe209;" horiz-adv-x="1755" 
d="M861 987q0 -31 6 -59q-163 9 -302 81.5t-236 191.5q-35 -61 -35 -131t32 -126t84 -91q-64 1 -119 32v-4q0 -93 59.5 -165.5t151.5 -90.5q-34 -9 -66 -9t-53 5q42 -125 121.5 -153t122.5 -28q-139 -112 -324 -112q-32 0 -63 3q184 -117 401 -117q339 0 541 230.5
t202 513.5v33q78 58 130 136q-70 -32 -149 -41q83 50 114 144q-78 -46 -166 -63q-80 82 -189 82q-110 0 -186.5 -76.5t-76.5 -185.5zM0 1609h1755v-1755h-1755v1755z" />
    <glyph glyph-name="github" unicode="&#xe210;" horiz-adv-x="1522" 
d="M1522 1016q0 -442 -222 -490.5t-284 -55.5q75 -65 75 -206v-26l-1 -91v-186q0 -48 -29 -67q-60 -41 -249 -41t-237 37q-34 26 -34 58v66q0 66 -2 135q-58 -13 -183.5 -13t-188.5 161q-45 112 -133 169q-30 19 -33 33.5t9 20.5t59 5t108 -59q25 -24 44 -53
q108 -181 322 -92q15 99 71 148q-316 36 -410.5 193t-94.5 343t114 308q-33 66 -22.5 151.5t33.5 142.5q55 11 139.5 -24.5t164.5 -89.5q129 37 277 37t278 -37q124 86 230 110q43 9 74 4q54 -133 35 -208.5t-24 -85.5q114 -122 114 -297z" />
    <glyph glyph-name="github_alt" unicode="&#xe211;" horiz-adv-x="1755" 
d="M615 -146h-615v1755h1755v-1755h-571q-35 0 -48.5 16t-13.5 34l1 247q0 114 -60 166q183 20 296.5 114.5t113.5 329.5q0 138 -92 241q41 110 -8 239q-83 17 -248 -92q-222 60 -451 0q-164 109 -247 92q-50 -130 -9 -239q-92 -103 -92 -236q0 -239 113.5 -334t296.5 -115
q-49 -44 -58 -120q-105 -50 -168.5 -14t-85.5 74t-54 70t-74 34q-41 1 -51 -4q-23 -16 27 -48q61 -34 101 -132q49 -133 152.5 -131.5t149.5 11.5l2 -153q0 -18 -14 -34t-48 -16z" />
    <glyph glyph-name="email_social" unicode="&#xe212;" horiz-adv-x="1667" 
d="M1526 243v755l-383 -374zM832.5 461q-113.5 0 -202.5 67l-385 -385h1179l-385 385q-93 -67 -206.5 -67zM143 998v-755l382 381zM834 602q84 0 141 59l447 435h-1176l447 -435q57 -59 141 -59zM1595 1240q30 0 51 -20.5t21 -51.5v-1097q0 -30 -21 -50.5t-51 -20.5h-1524
q-30 0 -50.5 20.5t-20.5 50.5v1097q0 31 20.5 51.5t50.5 20.5h1524z" />
    <glyph glyph-name="email_social_alt" unicode="&#xe213;" horiz-adv-x="1755" 
d="M1107 735l342 -342v677zM878 587q-80 0 -155 75l-355 -353l1018 1l-353 352q-75 -75 -155 -75zM307 1070v-677l341 342zM877.5 691q36.5 0 61.5 24l447 438h-1016l447 -438q24 -24 60.5 -24zM0 1609h1755v-1755h-1755v1755z" />
    <glyph glyph-name="globe" unicode="&#xe300;" horiz-adv-x="1633" 
d="M1089 202q148 67 249 202t125 308h-242q-16 -307 -132 -510zM815 1447q-36 0 -76 -39.5t-98.5 -162t-67.5 -370.5h486q-11 248 -68.5 370.5t-98.5 162t-77 39.5zM816 167q34 0 73.5 37t96 152.5t71.5 355.5h-482q15 -240 71.5 -355.5t96 -152.5t73.5 -37zM544 202
q-117 201 -133 510h-242q33 -258 166.5 -366.5t208.5 -143.5zM523 1376q-220 -115 -282 -266.5t-72 -234.5h241q12 301 113 501zM1109 1376q101 -200 113 -501h241q-19 158 -111.5 290t-242.5 211zM816 1610q112 0 216.5 -29t195.5 -82t166 -128t128 -166t82 -195.5
t29 -216.5t-29 -216.5t-108.5 -241t-268.5 -247.5t-411 -111q-169 0 -317.5 64t-259.5 175t-175 259.5t-64 289.5t29 245t82.5 195t127.5 166t165 128t195.5 82t216.5 29z" />
    <glyph glyph-name="globe_alt" unicode="&#xe301;" 
d="M1230 287q85 149 99 384h182q-24 -195 -124.5 -276.5t-156.5 -107.5zM1024 1223q27 0 57.5 -30t73 -118.5t52.5 -281.5h-366q10 193 52.5 281.5t73 118.5t57.5 30zM1245 1170q107 -55 178.5 -153.5t87.5 -223.5h-181q-12 234 -85 377zM719 671q14 -235 99 -384
q-174 80 -223.5 200t-57.5 184h182zM1008 261q-42 0 -98.5 115.5t-67.5 294.5h364q-11 -178 -53.5 -266t-72.5 -116t-72 -28zM803 1170q-76 -150 -84 -377h-182q16 125 87.5 223.5t178.5 153.5zM1024 118q85 0 163.5 21.5t181 81.5t186.5 201.5t84 288.5t-48.5 259
t-132 195.5t-195.5 132t-218 48.5t-184 -21.5t-146 -62t-124.5 -96.5t-96.5 -124t-62 -147t-22 -163.5t22 -163t62 -146.5t96.5 -124.5t124.5 -96.5t146 -61.5t163 -21.5zM1024 1755q142 0 272.5 -36.5t302 -136.5t310.5 -335.5t139 -514.5t-175.5 -577t-441 -373
t-407.5 -75t-272.5 37t-244.5 103.5t-207 160.5t-160 207.5t-103.5 244t-36.5 272t36.5 272.5t103.5 244.5t160 207t207 160t244.5 103t272.5 36.5z" />
    <glyph glyph-name="email" unicode="&#xe302;" horiz-adv-x="1662" 
d="M1512 223v771l-477 -428zM832 408q-28 0 -51 19l-39 36l-432 -312h1043l-432 312l-39 -36q-22 -19 -50 -19zM151 223l476 343l-476 428v-771zM1391 1089h-1119l559 -504zM1587 1240q32 0 54 -22.5t22 -52.5v-1090q0 -32 -22 -53.5t-54 -21.5h-1512q-32 0 -53.5 21.5
t-21.5 53.5v1090q0 31 21.5 53t53.5 22h1512z" />
    <glyph glyph-name="email_alt" unicode="&#xe303;" 
d="M1547 383v628l-387 -348zM1024 557q-18 0 -30 11l-36 32l-361 -261h856l-363 261l-35 -32q-13 -11 -31 -11zM501 1011v-628l388 280zM1474 1069h-900l450 -406zM1024 1755q142 0 272.5 -36.5t302 -136.5t310.5 -335.5t139 -514.5t-175.5 -577t-441 -373t-407.5 -75
t-272.5 37t-244.5 103.5t-207 160.5t-160 207.5t-103.5 244t-36.5 272t36.5 272.5t103.5 244.5t160 207t207 160t244.5 103t272.5 36.5z" />
    <glyph glyph-name="mail" unicode="&#xe304;" horiz-adv-x="1662" 
d="M1511 152v936h-1359v-936h1359zM1586 1240q32 0 54.5 -22.5t22.5 -52.5v-1088q0 -32 -22.5 -54.5t-54.5 -22.5h-1511q-32 0 -53.5 22.5t-21.5 54.5v1088q0 31 21.5 53t53.5 22h1511zM1113 581v-87h-688v87h688zM1113 435v-86h-688v86h688zM1411 963v-209h-209v209h209z
M1113 727v-88h-688v88h688z" />
    <glyph glyph-name="mail_alt" unicode="&#xe305;" 
d="M461 361q0 -19 19 -19h1087q19 0 19 19v796q0 19 -19 19l-1087 -1q-19 0 -19 -20v-794zM1024 1755q277 0 512 -137t373.5 -372t138.5 -514.5t-138.5 -514.5t-374 -372.5t-511.5 -137.5t-511 137t-374 372.5t-139 515t139 515t373.5 372t511.5 136.5zM1303 859v158h156
v-158h-156zM718 664v65h517v-65h-517zM718 554v67h517v-67h-517zM718 773v66h517v-66h-517z" />
    <glyph glyph-name="phone" unicode="&#xe306;" horiz-adv-x="1915" 
d="M1869 993l46 -81l-517 -297l-47 79zM96 96q-33 33 -47 61v1q-54 92 -48 177q10 165 187 354.5t492 368.5q142 86 446 216t528 21q74 -39 131 -133q22 -38 31 -73l-527 -304q-92 99 -92 228q-399 -152 -724 -422q108 -61 151 -191zM158 3l515 298l47 -79l-518 -299z" />
    <glyph glyph-name="phone_alt" unicode="&#xe307;" 
d="M1307 722l335 193l-29 53l-335 -194zM808 584q-26 86 -97 123q218 181 468 272q-2 -56 29 -106q9 -19 30 -40l340 197q-11 48 -43.5 84t-70.5 54q-87 40 -246.5 2t-367.5 -156q-4 -4 -56 -34t-216 -154t-173 -281q-1 -90 62 -158zM536 277l334 193l-30 50l-334 -192z
M1024 1755q277 0 512 -137t373.5 -372t138.5 -514t-139 -514.5t-374 -373t-511 -137.5t-510.5 137t-374 373t-139.5 515t139 514.5t373.5 372t511.5 136.5z" />
    <glyph glyph-name="cell" unicode="&#xe308;" horiz-adv-x="877" 
d="M787 1167q0 15 -10 25.5t-26 10.5h-608q-15 0 -25.5 -10.5t-10.5 -25.5v-809q0 -16 10.5 -26.5t25.5 -10.5h608q16 0 26 10.5t10 26.5v809zM446.5 123q28.5 0 48 21t19.5 49t-19.5 47t-48 19t-48 -19t-19.5 -47t19.5 -49t48 -21zM312 1342q-15 0 -24.5 -10t-9.5 -24
t9.5 -24t24.5 -10h270q15 0 24.5 10t9.5 24t-9.5 24t-24.5 10h-270zM709 1485q70 0 119.5 -49.5t49.5 -118.5v-1148q0 -69 -48.5 -119t-120.5 -50h-540q-71 0 -120 49t-49 120v1148q0 71 50 119.5t119 48.5h540z" />
    <glyph glyph-name="cell_alt" unicode="&#xe309;" 
d="M779 383q-29 0 -29 30v670q0 13 8.5 21.5t20.5 8.5h503q13 0 21.5 -8.5t8.5 -21.5v-670q0 -13 -8.5 -21.5t-21.5 -8.5h-503zM1387 1207q0 59 -40 99t-99 40h-447q-59 0 -99 -40t-40 -99v-950q0 -59 40 -99t99 -40h447q59 0 99 40t40 99v950zM1024 1755q142 0 272.5 -36.5
t302 -136.5t310.5 -335.5t139 -514.5t-175.5 -577t-441 -373t-407.5 -75t-272.5 37t-244.5 103.5t-207 160.5t-160 207.5t-103.5 244t-36.5 272t36.5 272.5t103.5 244.5t160 207t207 160t244.5 103t272.5 36.5zM1031 333q23 0 39.5 -17t16.5 -39.5t-16.5 -39t-39.5 -16.5
t-39.5 16.5t-16.5 39t16.5 39.5t39.5 17zM1170 1193q0 -20 -27 -20h-224q-28 0 -28 28t28 28h224q11 0 19 -8t8 -28z" />
    <glyph glyph-name="fax" unicode="&#xe310;" horiz-adv-x="1531" 
d="M1200 582q23 0 38.5 16t15.5 37.5t-15.5 37.5t-38.5 16t-38 -16t-15 -37.5t15 -37.5t38 -16zM1200 408q23 0 38.5 16t15.5 38t-15.5 37t-38.5 15t-38 -15.5t-15 -37.5t15 -37.5t38 -15.5zM1200 233q23 0 38.5 15.5t15.5 37.5t-15.5 37.5t-38.5 15.5t-38 -15.5t-15 -37.5
t15 -37.5t38 -15.5zM994 582q23 0 38 16t15 37.5t-15 37.5t-38 16t-37.5 -16t-14.5 -37.5t14.5 -37.5t37.5 -16zM994 408q23 0 38 16t15 38t-15 37t-38 15t-37.5 -15.5t-14.5 -37.5t14.5 -37.5t37.5 -15.5zM994 233q23 0 38 15.5t15 37.5t-15 37.5t-38 15.5t-37.5 -15.5
t-14.5 -37.5t14.5 -37.5t37.5 -15.5zM790 582q22 0 37 16t15 37.5t-15 37.5t-37 16t-38 -16t-16 -37.5t16 -37.5t38 -16zM790 408q22 0 37 16t15 38t-15 37t-37 15t-38 -15.5t-16 -37.5t16 -37.5t38 -15.5zM790 233q22 0 37 15.5t15 37.5t-15 37.5t-37 15.5t-38 -15.5
t-16 -37.5t16 -37.5t38 -15.5zM1245 921v113h-250q-27 0 -46.5 20t-19.5 47v250h-519v-217q69 -30 112 -86.5t44 -126.5h679zM433 919q0 42 -43.5 74.5t-106 32.5t-106.5 -32.5t-44 -74.5v-679q0 -44 44.5 -75.5t90.5 -31.5q76 0 120.5 31.5t44.5 75.5v679zM1465 921
q29 0 47.5 -20t18.5 -47v-788q0 -29 -18.5 -47.5t-47.5 -18.5h-1182q-118 0 -200.5 70.5t-82.5 169.5v679q0 98 81.5 168t195.5 72v258q0 27 20 47.5t47 20.5h651q22 0 33.5 -9t14.5 -11l316 -316q19 -19 19 -48v-180h87z" />
    <glyph glyph-name="fax_alt" unicode="&#xe311;" 
d="M1383 447q22 0 36.5 -15t14.5 -36.5t-14.5 -36.5t-36.5 -15t-37 15t-15 36.5t15 36.5t37 15zM1224 582q22 0 36.5 -15t14.5 -37t-14.5 -36.5t-36.5 -14.5t-36 15t-14 36t14 36.5t36 15.5zM1224 715q22 0 36.5 -14.5t14.5 -36.5t-14.5 -36t-36.5 -14t-36 14t-14 36
t14 36.5t36 14.5zM786 319q0 -54 -34 -103h808q23 0 38 15.5t15 38.5v521q0 23 -15 38.5t-38 15.5h-774v-526zM786 946h711v121h-279q-23 0 -38 15.5t-15 38.5v279h-486q-10 0 -17.5 -7.5t-7.5 -17.5v-222q66 -29 99 -75.5t33 -131.5zM685 971q0 44 -43 74t-102 30t-102 -30
t-43 -74v-652q0 -41 42.5 -72t102.5 -31t102.5 31t42.5 72v652zM1272 1175h192l-192 192v-192zM1024 1755q142 0 272.5 -36.5t244.5 -103t207 -160t160 -207t103.5 -244.5t36.5 -272.5t-36.5 -272.5t-103.5 -244.5t-160 -207t-207 -160t-244.5 -103.5t-272.5 -37t-272.5 37
t-244.5 103.5t-207 160t-160 207t-103.5 244.5t-36.5 272.5t36.5 272.5t103.5 244.5t160 207t207 160t244.5 103t272.5 36.5zM1383 715q22 0 36.5 -14.5t14.5 -36.5t-14.5 -36t-36.5 -14t-37 14t-15 36t15 36.5t37 14.5zM1383 582q22 0 36.5 -15t14.5 -37t-14.5 -36.5
t-36.5 -14.5t-37 15t-15 36t15 36.5t37 15.5zM1066.5 582q21.5 0 36.5 -15t15 -37t-15 -36.5t-36.5 -14.5t-36.5 15t-15 36t15 36.5t36.5 15.5zM1066.5 447q21.5 0 36.5 -15t15 -36.5t-15 -36.5t-36.5 -15t-36.5 15t-15 36.5t15 36.5t36.5 15zM1066.5 715q21.5 0 36.5 -14.5
t15 -36.5t-15 -36t-36.5 -14t-36.5 14t-15 36t15 36.5t36.5 14.5zM1224 447q22 0 36.5 -15t14.5 -36.5t-14.5 -36.5t-36.5 -15t-36 15t-14 36.5t14 36.5t36 15z" />
    <glyph glyph-name="document" unicode="&#xe400;" horiz-adv-x="1268" 
d="M1123 146v969h-274q-30 0 -51.5 22t-21.5 52v274h-630v-1317h977zM1269 1189v-1117q0 -30 -21.5 -51t-50.5 -21h-1125q-30 0 -51 21t-21 51v1464q0 30 21 51.5t51 21.5h777q28 0 53 -22l346 -346q21 -21 21 -52zM256 827v109h757v-109h-757zM400 1103q-22 0 -41.5 8.5
t-34 23.5t-23 34.5t-8.5 41.5t8.5 42t23 34.5t34 23t53 8.5t65.5 -31.5t32 -65.5t-9 -53t-23.5 -34t-34.5 -23.5t-42 -8.5zM256 576v109h757v-109h-757zM256 325v108h757v-108h-757z" />
    <glyph glyph-name="document_alt" unicode="&#xe401;" 
d="M735 557v83h578v-83h-578zM735 750v82h578v-82h-578zM1488 117q21 0 21 19v838h-352q-21 0 -21 19v352h-577q-20 0 -20 -19v-1190q0 -19 20 -19h929zM1239 1077h241l-241 241v-241zM1024 1755q142 0 272.5 -36.5t244.5 -103t207 -160t160 -207t103.5 -244.5t36.5 -272.5
t-36.5 -272.5t-103.5 -244.5t-160 -207t-207 -160t-244.5 -103.5t-272.5 -37t-272.5 37t-244.5 103.5t-207 160t-160 207t-103.5 244.5t-36.5 272.5t36.5 272.5t103.5 244.5t160 207t207 160t244.5 103t272.5 36.5zM735 365v83h578v-83h-578zM844.5 960q-34.5 0 -58.5 24
t-24 58.5t24 58.5t58.5 24t58.5 -24t24 -58.5t-24 -58.5t-58.5 -24z" />
    <glyph glyph-name="pdfIcon" unicode="&#xe402;" horiz-adv-x="1268" 
d="M1125 145v972h-276q-30 0 -51 21t-21 51v274h-631v-1318h979zM1269 1189v-1117q0 -30 -21 -51t-51 -21h-1125q-30 0 -51 21t-21 51v1464q0 30 21 51.5t51 21.5h777q31 0 53 -22l142 -142q142 -142 159 -158l46 -46q20 -22 20 -52zM710 879q0 24 -14 41.5t-31 17.5h-75
v-413h75q17 0 31 17.5t14 41.5v295zM531 968q0 31 29 31h105q43 0 73 -35t30 -85v-295q0 -47 -28.5 -83t-74.5 -36h-105q-29 0 -29 31v472zM827 968q0 14 9 22.5t21 8.5h117q13 0 22 -8.5t9 -22.5t-9.5 -22t-21.5 -8h-87v-177h87q13 0 22 -8.5t9 -20.5t-9.5 -20.5
t-21.5 -8.5h-87v-207q0 -13 -8.5 -22t-21 -9t-21.5 9t-9 22v472zM413 929q0 9 -10 9h-80v-177h80q9 0 10 10v158zM265 968q0 31 30 31h108q29 0 49 -21t20 -49v-158q0 -29 -20 -48.5t-49 -19.5h-80v-207q0 -13 -8.5 -22t-20.5 -9t-20.5 9t-8.5 22v472z" />
    <glyph glyph-name="pdf_alt" unicode="&#xe403;" 
d="M1382 594.5q0 -28.5 -29 -28.5h-86v-201q0 -11 -8 -20t-20.5 -9t-20.5 8.5t-8 20.5v459q0 29 29 29h114q29 0 29 -29t-29 -29h-86v-172h86q29 0 29 -28.5zM1095 738q0 23 -12.5 40t-29.5 17h-72v-401h72q17 0 29.5 17.5t12.5 39.5v287zM923 824q0 29 29 29h101
q40 0 70 -34t30 -81v-287q0 -48 -29.5 -81.5t-70.5 -33.5h-101q-13 0 -21 8.5t-8 20.5v459zM1488 117q21 0 21 19v838h-352q-21 0 -21 19v352h-577q-20 0 -20 -19v-1190q0 -19 20 -19h929zM1239 1077h241l-241 241v-241zM1024 1755q142 0 272.5 -36.5t244.5 -103t207 -160
t160 -207t103.5 -244.5t36.5 -272.5t-36.5 -272.5t-103.5 -244.5t-160 -207t-207 -160t-244.5 -103.5t-272.5 -37t-272.5 37t-244.5 103.5t-207 160t-160 207t-103.5 244.5t-36.5 272.5t36.5 272.5t103.5 244.5t160 207t207 160t244.5 103t272.5 36.5zM809 785q0 10 -10 10
h-77v-172h77q10 0 10 10v152zM665 824q0 29 29 29h105q27 0 47 -19.5t20 -48.5v-152q0 -27 -20 -47t-47 -20h-77v-201q0 -11 -8 -20t-20.5 -9t-20.5 8.5t-8 20.5v459z" />
    <glyph glyph-name="upload" unicode="&#xe404;" horiz-adv-x="1268" 
d="M146 146h977v971h-274q-30 0 -51 21t-21 51l-1 274h-630v-1317zM1269 1190v-1117q0 -31 -21 -52t-51 -21h-1124q-31 0 -52 21t-21 52v1463q0 31 21 52t52 21h776q26 0 53 -20q63 -64 112 -113t85 -85.5t43 -42.5l106 -107q21 -21 21 -51zM929 803q0 -29 -21 -51t-50 -22
t-46 17t-48 47q-31 29 -58 57v-510q0 -30 -21 -52t-50.5 -22t-51 22t-21.5 52v510l-99 -99q-22 -22 -51.5 -22t-51.5 22t-21.5 51t7.5 36l58 58q50 51 84 85t96 95q21 22 51.5 22t49.5 -22q63 -63 98 -97q63 -62 88.5 -89t38.5 -37q19 -22 19 -51z" />
    <glyph glyph-name="upload_alt" unicode="&#xe405;" 
d="M1249 730q0 -23 -16 -39t-39 -16t-39 16l-38 39q-17 16 -38 38v-391q0 -23 -16 -39t-39 -16t-39 16t-16 39v391l-76 -77q-16 -16 -39 -16t-39 16t-16 39t16 39l170 170q16 16 39 17t39 -15l84 -85q16 -16 31 -31.5t18 -18.5l37 -37q16 -16 16 -39zM1489 118q20 0 20 20
v836h-352q-20 0 -20 20v352h-578q-20 0 -20 -20v-1189q0 -19 21 -19h929zM1240 1078h241l-241 241v-241zM1024 1755q142 0 272.5 -36.5t302 -136.5t310.5 -335.5t139 -514.5t-175.5 -577t-441 -373t-407.5 -75t-272 37t-244 103.5t-207.5 160.5t-160.5 207.5t-103.5 244
t-36.5 272t36.5 272.5t103.5 244.5t160.5 207t207.5 160t244 103t272 36.5z" />
    <glyph glyph-name="download" unicode="&#xe406;" horiz-adv-x="1269" 
d="M146 146h979v972h-276q-30 0 -51 21t-21 51v274h-631v-1318zM1270 1190v-1117q0 -31 -21.5 -52t-50.5 -21h-1126q-30 0 -51 21t-21 52v1464q0 30 21 51t51 21h777q32 0 52 -20l163 -163q162 -162 172 -172.5t22 -22.5t12 -41zM339 562.5q0 29.5 22 51.5t51 22.5t50 -21.5
l100 -101v512q0 30 22 51.5t51.5 21.5t50.5 -21.5t21 -51.5v-512q25 26 45 46l26 26q27 27 30 29q21 22 50 22t52 -22q21 -23 20.5 -52.5t-11.5 -40.5l-52 -52q-52 -52 -73 -72l-108 -109q-21 -22 -51 -22t-51 22q-112 112 -142.5 141t-45.5 45t-25 26t-10 11
q-22 21 -22 50.5z" />
    <glyph glyph-name="download_alt" unicode="&#xe407;" 
d="M1194 602q23 0 39 -16t16 -38.5t-16 -38.5l-170 -171q-16 -16 -39 -16t-39 16l-170 171q-16 16 -16 38.5t16 38.5t39 16t39 -16l38 -39q16 -17 38 -37v391q0 23 16 39.5t39 16.5t39 -17t16 -39v-391l76 76q16 16 39 16zM1489 118q20 0 20 20v836h-352q-20 0 -20 20v352
h-578q-20 0 -20 -20v-1189q0 -19 21 -19h929zM1240 1078h241l-241 241v-241zM1024 1755q142 0 272.5 -36.5t302 -136.5t310.5 -335.5t139 -514.5t-175.5 -577t-441 -373t-407.5 -75t-272.5 37t-244.5 103.5t-207 160.5t-160 207.5t-103.5 244t-36.5 272t36.5 272.5
t103.5 244.5t160 207t207 160t244.5 103t272.5 36.5z" />
    <glyph glyph-name="copy" unicode="&#xe408;" horiz-adv-x="1560" 
d="M1413 281v977h-276q-31 0 -52.5 22t-21.5 53v275h-634v-134h428q34 0 52 -21l348 -349q22 -24 22 -53v-770h134zM1130 1v977h-273q-31 0 -52 22t-21 51v276h-637v-1326h983zM1560 1333v-1125q0 -30 -21.5 -51.5t-52.5 -21.5h-207v-208q0 -30 -22 -51.5t-52 -21.5h-1131
q-31 0 -52.5 21.5t-21.5 51.5v1474q0 30 21.5 51.5t52.5 21.5h207v207q0 31 22 52.5t52 21.5h782q27 0 53 -22l347 -348q23 -23 23 -52z" />
    <glyph glyph-name="copy_alt" unicode="&#xe409;" 
d="M1519 334q19 0 19 20v723h-260l83 -84q38 -38 38 -89v-570h120zM482 137q0 -19 20 -19h801q19 0 19 19v724h-277q-19 0 -32 12.5t-13 30.5v278h-498q-8 0 -14 -6t-6 -14v-1025zM1089 949h208l-208 209v-209zM719 1399q-19 0 -21 -21v-120h347q48 0 71 -21t39 -37l61 -62
v261h-497zM1305 1166h209l-209 208v-208zM1024 1755q142 0 272.5 -36.5t244.5 -103t207 -160t160 -207t103.5 -244.5t36.5 -272.5t-36.5 -272.5t-103.5 -244.5t-160 -207t-207 -160t-244.5 -103.5t-272.5 -37t-272.5 37t-244.5 103.5t-207 160t-160 207t-103.5 244.5
t-36.5 272.5t36.5 272.5t103.5 244.5t160 207t207 160t244.5 103t272.5 36.5z" />
    <glyph glyph-name="edit" unicode="&#xe410;" horiz-adv-x="1630" 
d="M1631 -146l-557 156q-17 3 -36 22l-805 802l233 237l869 -869l-169 -170l229 -62l119 119l-61 230l-52 -52l-868 870l116 114q9 -10 19.5 -20t36 -36t74 -74.5t134.5 -134t119 -118.5l421 -421q18 -18 21 -37zM229 1437q48 48 116.5 48t118.5 -48l127 -127l-416 -416
l-127 127q-48 48 -48 117.5t48 117.5z" />
    <glyph glyph-name="edit_alt" unicode="&#xe411;" 
d="M1536 219l-107 386q-6 16 -15 25q-199 196 -316 314t-150.5 151.5t-51 50.5t-18.5 18l-21 21l-79 -79l600 -600l19 19l41 -149q1 -2 5 -7l-57 -57q-2 3 -8 6l-147 41l100 100l-600 600l-161 -161l556 -556q11 -11 25 -15zM649 1346q-47 0 -81 -34l-126 -125
q-33 -33 -33 -81t33 -81l87 -87l288 287l-87 87q-34 34 -81 34zM1024 1755q142 0 272.5 -36.5t244.5 -103t207 -160t160 -207t103.5 -244.5t36.5 -272.5t-36.5 -272.5t-103.5 -244.5t-160 -207t-207 -160t-244.5 -103.5t-272.5 -37t-272.5 37t-244.5 103.5t-207 160
t-160 207t-103.5 244.5t-36.5 272.5t36.5 272.5t103.5 244.5t160 207t207 160t244.5 103t272.5 36.5z" />
    <glyph glyph-name="attach" unicode="&#xe412;" horiz-adv-x="1706" 
d="M1706 320q0 -192 -137 -329t-330 -137t-329 137l-811 808q-99 99 -99 239t99 243q100 100 238 100t242 -100l810 -811q62 -62 62.5 -151t-61.5 -151t-150.5 -61.5t-149.5 61.5l-511 513q-25 21 -25 56t18 55q29 33 67.5 33t58.5 -26l511 -509q13 -15 30 -15t31 14
t14.5 31.5t-12.5 28.5l-809 811q-52 48 -124.5 48t-120.5 -48q-49 -53 -49 -120t49 -120l813 -811q85 -87 209 -87t211 87q85 91 85 210t-85 210l-813 813q-24 25 -24 58.5t24 60.5q26 24 60.5 24t60.5 -24l810 -813q137 -136 137 -328z" />
    <glyph glyph-name="attach_alt" unicode="&#xe413;" 
d="M851 1240q0 -25 19 -43l584 -584q61 -61 61 -150t-61 -152q-63 -63 -151.5 -63t-151.5 63l-584 583q-35 38 -35 87t26 76q44 45 96 45t87 -35l582 -584q22 -22 6.5 -37t-28 -15t-21.5 9l-367 368q-18 18 -43 18t-43.5 -18t-18.5 -43.5t18 -43.5l368 -367q42 -44 107 -44
t109 44t44.5 106.5t-44.5 109.5l-584 583q-70 72 -173.5 72t-171.5 -72q-72 -70 -72 -172.5t72 -172.5l583 -584q98 -98 238 -98t238 98t98 238q0 138 -99 237l-582 584q-18 18 -43.5 18.5t-44 -18t-18.5 -43.5zM1024 1755q142 0 272.5 -36.5t244.5 -103t207 -160t160 -207
t103.5 -244.5t36.5 -272.5t-36.5 -272.5t-103.5 -244.5t-160 -207t-207 -160t-244.5 -103.5t-272.5 -37t-272.5 37t-244.5 103.5t-207 160t-160 207t-103.5 244.5t-36.5 272.5t36.5 272.5t103.5 244.5t160 207t207 160t244.5 103t272.5 36.5z" />
    <glyph glyph-name="print" unicode="&#xe414;" horiz-adv-x="1644" 
d="M1176 217v-108h-710v108h710zM1176 394v-109h-710v109h710zM1439 618q31 0 52.5 22t21.5 54t-21.5 54t-52.5 22t-52 -22t-21 -54t21 -54t52 -22zM1291 903v83h-280q-30 0 -52 22t-22 53v275h-580v-433h934zM1291 5v473h-934v-473h934zM1571 903q32 0 53 -22.5t21 -54.5
v-675q0 -30 -21 -51t-53 -21h-133v-153q0 -30 -21.5 -51.5t-53.5 -21.5h-1082q-30 0 -51 21.5t-21 51.5v153h-136q-30 0 -51.5 21t-21.5 51v675q0 32 21.5 54.5t51.5 22.5h136v508q0 31 21 52.5t51 21.5h730q31 0 54 -21l352 -352q21 -21 21 -51v-158h133z" />
    <glyph glyph-name="print_alt" unicode="&#xe415;" 
d="M1296 342v-83h-533v83h533zM1296 474v-83h-533v83h533zM1643 850q0 22 -14 36.5t-36 14.5h-1127q-22 0 -36.5 -14.5t-14.5 -36.5v-507q0 -22 15 -37t36 -15h55v303q0 42 30.5 72t72.5 30h811q42 0 72 -29.5t30 -72.5v-303h56q22 0 36 15t14 37v507zM1435 594h-811v-472
h811v472zM613 1427v-438h810v68h-320q-22 0 -37 15t-15 37v318h-438zM1154 1159h219l-219 218v-218zM1024 1755q142 0 272.5 -36.5t244.5 -103t207 -160t160 -207t103.5 -244.5t36.5 -272.5t-36.5 -272.5t-103.5 -244.5t-160 -207t-207 -160t-244.5 -103.5t-272.5 -37
t-272.5 37t-244.5 103.5t-207 160t-160 207t-103.5 244.5t-36.5 272.5t36.5 272.5t103.5 244.5t160 207t207 160t244.5 103t272.5 36.5zM1541.5 834q21.5 0 36.5 -14.5t15 -36.5t-15 -37t-36.5 -15t-36.5 15t-15 37t15 36.5t36.5 14.5z" />
    <glyph glyph-name="save" unicode="&#xe416;" horiz-adv-x="1484" 
d="M463 199v272h150v-272h-150zM1213 1311q0 26 -18.5 44t-43.5 18h-818q-24 0 -42.5 -18t-18.5 -44v-394q0 -26 18.5 -44t42.5 -18h818q25 0 43.5 17.5t18.5 44.5v394zM1151 547q0 23 -13 42t-34 19h-723q-22 0 -35 -19t-13 -42v-425q0 -25 13 -41t35 -16h723q19 0 33 16
t14 41v425zM1422 1485q26 0 44.5 -18.5t18.5 -43.5v-1360q0 -26 -18.5 -44.5t-44.5 -18.5h-1212q-24 0 -42 18l-151 151q-17 17 -17 42v1212q0 25 18.5 43.5t43.5 18.5h1360z" />
    <glyph glyph-name="save_alt" unicode="&#xe417;" 
d="M1586 1248q0 19 -13 33t-32 14h-1034q-19 0 -32.5 -14t-13.5 -33v-919q0 -21 13 -32l115 -115q16 -14 33 -14h919q19 0 32 13.5t13 33.5v1033zM1024 1755q142 0 272.5 -36.5t244.5 -103t207 -160t160 -207t103.5 -244.5t36.5 -272.5t-36.5 -272.5t-103.5 -244.5
t-160 -207t-207 -160t-244.5 -103.5t-272.5 -37t-272.5 37t-244.5 103.5t-207 160t-160 207t-103.5 244.5t-36.5 272.5t36.5 272.5t103.5 244.5t160 207t207 160t244.5 103t272.5 36.5zM1334 1209q19 0 33 -13.5t14 -33.5v-298q0 -19 -14 -33t-33 -14h-621q-19 0 -32.5 14
t-13.5 33v298q0 19 13.5 33t32.5 14h621zM926 318v207h-115v-207h115zM1299 630q15 0 25 -14t10 -33v-321q0 -19 -10 -32.5t-25 -13.5h-552q-14 0 -24 13t-10 33v321q0 19 10.5 33t23.5 14h552z" />
    <glyph glyph-name="appendix" unicode="&#xe418;" horiz-adv-x="1555" 
d="M882 428.5q0 30.5 22 53t54 22.5t53 -22.5t21 -53t-21 -53t-53 -22.5t-54 22.5t-22 53zM263 428.5q0 30.5 22 53t53 22.5t53.5 -22.5t22.5 -53t-22.5 -53t-53.5 -22.5t-53 22.5t-22 53zM469 428.5q0 30.5 21.5 53t53.5 22.5t53.5 -22.5t21.5 -53t-21.5 -53t-53.5 -22.5
t-53.5 22.5t-21.5 53zM675 428.5q0 30.5 21.5 53t53.5 22.5t53.5 -22.5t21.5 -53t-21.5 -53t-53.5 -22.5t-53.5 22.5t-21.5 53zM1407 3v596h-111v-407q0 -33 -23.5 -54t-53.5 -21h-809v-114h997zM150 264h999v989h-285q-30 0 -50.5 22t-20.5 54v278h-643v-1343zM1482 751
q33 0 53 -24t20 -54l-1 -746q0 -31 -21 -52t-51 -21h-1144q-30 0 -53.5 21t-23.5 52v190h-186q-33 0 -54 21t-21 54v1493q0 30 21 50t54 20h789q35 0 55 -22l355 -351q22 -22 22 -53v-578h186z" />
    <glyph glyph-name="appendix_alt" unicode="&#xe419;" 
d="M937 496q0 21 14.5 35t35 14t34.5 -14t14 -35t-14 -35t-34.5 -14t-35 14t-14.5 35zM768 496q0 21 14.5 35t35 14t34.5 -14t14 -35t-14 -35t-34.5 -14t-35 14t-14.5 35zM1107 496q0 21 14.5 35t35 14t35 -14t14.5 -35t-14.5 -35t-35 -14t-35 14t-14.5 35zM598 496
q0 21 14 35t34.5 14t35 -14t14.5 -35t-14.5 -35t-35 -14t-34.5 14t-14 35zM1518 118q20 0 20 19v538q-2 20 -20 20h-120v-393q0 -19 -12.5 -32t-31.5 -13h-656v-120q0 -19 20 -19h800zM502 334h800q19 0 19 19v724h-278q-18 0 -31 12.5t-13 31.5v278h-497q-21 -2 -21 -21
l1 -1025q0 -19 20 -19zM1088 1166h209l-209 208v-208zM1024 1755q142 0 272.5 -36.5t244.5 -103t207 -160t160 -207t103.5 -244.5t36.5 -272.5t-36.5 -272.5t-103.5 -244.5t-160 -207t-207 -160t-244.5 -103.5t-272.5 -37t-272.5 37t-244.5 103.5t-207 160t-160 207
t-103.5 244.5t-36.5 272.5t36.5 272.5t103.5 244.5t160 207t207 160t244.5 103t272.5 36.5z" />
    <glyph glyph-name="supplement" unicode="&#xe420;" horiz-adv-x="1557" 
d="M1407 2v597h-113v-412q0 -31 -23 -52.5t-54 -21.5h-804v-111h994zM146 264h999v986h-276q-33 0 -55 22.5t-22 53.5v279h-646v-1341zM1481 749q33 0 55 -21t22 -54v-748q0 -30 -23 -51t-54 -21h-1147q-44 0 -59.5 29t-15.5 43v187h-187q-30 0 -51 22t-21 52v1496
q0 30 21 51t51 21h797q22 0 48 -22l353 -352q24 -22 24 -55v-577h187zM875 830q30 0 51 -22t21 -52t-21 -52.5t-51 -22.5h-155v-152q0 -31 -21 -52.5t-53 -21.5t-53.5 21.5t-21.5 52.5v152h-148q-33 0 -56 22.5t-23 53.5t23 52t56 21h148v157q0 30 21.5 52.5t53.5 22.5
t53 -22.5t21 -52.5v-157h155z" />
    <glyph glyph-name="supplement_alt" unicode="&#xe421;" 
d="M1109 781q21 0 35 -15t14 -34.5t-14.5 -34.5t-34.5 -15h-158v-157q0 -19 -15 -34.5t-35 -15.5t-34 14.5t-14 35.5v157h-158q-21 0 -35 14t-14 34t14 35.5t35 15.5h158v157q0 21 14 35t34 14t35 -14t15 -35v-157h158zM1518 117q19 0 19 20v537q0 21 -19 21h-120v-394
q0 -18 -12.5 -31t-31.5 -13h-656v-120q0 -20 20 -20h800zM502 1398q-21 0 -21 -20l1 -1025q0 -19 20 -19h800q19 0 19 19v724h-278q-18 0 -31 12.5t-13 31.5v277h-497zM1088 1165h209l-209 209v-209zM1024 1755q142 0 272.5 -36.5t244.5 -103t207 -160t160 -207
t103.5 -244.5t36.5 -272.5t-36.5 -272.5t-103.5 -244.5t-160 -207t-207 -160t-244.5 -103.5t-272.5 -37t-272.5 37t-244.5 103.5t-207 160t-160 207t-103.5 244.5t-36.5 272.5t36.5 272.5t103.5 244.5t160 207t207 160t244.5 103t272.5 36.5z" />
    <glyph glyph-name="bank_acct" unicode="&#xe500;" horiz-adv-x="1747" 
d="M1410 223v615h-261v-615h261zM1006 223v615h-263v-615h263zM601 223v615h-262v-615h262zM871 1328l-412 -233h830zM1659 131h88v-131h-1747v131h88v92h105v708h-105v164l784 452l787 -452v-164h-104v-708h104v-92z" />
    <glyph glyph-name="bank_acct_alt" unicode="&#xe501;" 
d="M1242 422v489h207v-489h-207zM1719 245v104h-70v73h-84v563h84v132l-625 356l-625 -356v-132h83v-563h-83v-73h-70v-104h1390zM1024 1755q142 0 272.5 -36.5t301.5 -136.5t310.5 -336t139.5 -515t-139 -514.5t-374 -372.5t-511 -137t-511 137t-374 372.5t-139 514.5
t176 577.5t441 372.5t407 74zM1022 1299l332 -182h-660zM598 422v489h207v-489h-207zM920 422v489h207v-489h-207z" />
    <glyph glyph-name="credit_card" unicode="&#xe502;" horiz-adv-x="1958" 
d="M301 342v-78h813v78h-813zM0 691h1959v-554q0 -88 -54 -112.5t-81 -24.5h-1687q-57 0 -97 40t-40 97v554zM1824 1143q53 0 94 -39t41 -96v-87h-1959v87q0 56 39.5 95.5t97.5 39.5h1687z" />
    <glyph glyph-name="credit_card_alt" unicode="&#xe503;" 
d="M1667 942v59q0 37 -25.5 62.5t-62.5 25.5h-1102q-59 0 -74.5 -35t-15.5 -53v-59h1280zM1667 792h-1280v-362q0 -37 26.5 -63t63.5 -26h1102q60 0 74 35t14 54v362zM1024 1755q142 0 272.5 -36.5t301.5 -136.5t310.5 -336t139.5 -515t-139 -514.5t-374 -372.5t-511 -137
t-511 137t-374 372.5t-139 514.5t176 577.5t441 372.5t407 74zM1117 562v-49h-533v49h533z" />
    <glyph glyph-name="loan" unicode="&#xe504;" horiz-adv-x="1268" 
d="M1122 146v971h-273q-30 0 -51 21t-21 52v273h-631v-1317h976zM1269 1190v-1117q0 -31 -21.5 -52t-50.5 -21h-1124q-31 0 -52 21t-21 52v1463q0 31 21 52t52 21h776q29 0 52 -20l347 -348q21 -21 21 -51zM685 829v108h328v-108h-328zM256 326v109h757v-109h-757zM256 577
v110h757v-110h-757zM438 887q0 -34 -37 -34q-14 0 -24 9.5t-10 24.5l1 40q-38 9 -66 37t-28 53q0 46 37 46q15 0 25 -11t10 -23t12 -24t41 -12t46 11t17 20t-3 13.5t-13 14.5t-56 11q-47 0 -81 34q-34 33 -34 71t27 65.5t68 36.5v40q0 29 35 34q16 0 26 -10.5t9 -23.5v-41
q31 -7 51 -23q41 -32 42 -79q0 -15 -10.5 -24.5t-25.5 -9.5q-34 0 -33 28q2 42 -66 42q-20 0 -35.5 -11t-16.5 -22t13 -24q13 -13 59 -13q46 -1 80 -35t34 -72t-26.5 -64t-67.5 -36v-39z" />
    <glyph glyph-name="loan_alt" unicode="&#xe505;" 
d="M735 365v83h578v-83h-578zM735 557v83h578v-83h-578zM1509 974h-322q-21 0 -35.5 14.5t-14.5 36.5v320h-542q-24 0 -40 -16.5t-16 -39.5v-1116q0 -23 16 -39.5t40 -16.5h858q23 0 39.5 16.5t16.5 39.5v801zM1239 1077h241l-241 241v-241zM1024 1755q142 0 272.5 -36.5
t301.5 -136.5t310.5 -336t139.5 -515t-139 -514.5t-374 -372.5t-511 -137t-511 137t-374 372.5t-139 514.5t176 577.5t441 372.5t407 74zM1062 750v82h251v-82h-251zM945 1066q0 -35 -23.5 -35t-32.5 9.5t-9 22.5t-16 23q-16 9 -39 10q-24 1 -39.5 -9.5t-15.5 -20.5t12 -22
t55 -13q44 0 76 -32q31 -32 31 -67t-24.5 -60.5t-62.5 -34.5v-37q-1 -14 -10.5 -23.5t-22.5 -9.5q-33 2 -33 33v38q-87 26 -87 95q0 14 9.5 23t23.5 9t23.5 -10t9.5 -21t11 -23t39 -12t43.5 10.5t15.5 18.5t-3 12.5t-12 14.5q-8 10 -52 10t-76 31q-32 30 -31 66
q0 36 24.5 62t63.5 35v36q0 26 33 34q14 0 23.5 -10.5t9.5 -23.5l-1 -37q54 -10 70.5 -42.5t16.5 -49.5z" />
    <glyph glyph-name="money_transfer" unicode="&#xe506;" horiz-adv-x="1758" 
d="M815 122q0 26 17.5 44t43 18t43.5 -17.5t18 -44.5v-204l61 60q23 23 42 42.5t30 29.5t35.5 9.5t44.5 -17.5q17 -18 17 -43t-17 -42l-231 -231q-17 -18 -43 -18.5t-44 18.5l-230 229q-18 18 -18 43.5t18 43.5t43 17.5t35 -9.5t26 -25t37.5 -37t42 -41t29.5 -29v204z
M936 1341q0 -26 -17.5 -44t-43 -18t-43.5 17.5t-18 44.5v204l-125 -124q-19 -17 -43.5 -17.5t-44.5 17.5q-17 18 -17 43t17 42l231 231q17 18 43 18t44 -18l230 -230q18 -18 18 -42.5t-18 -42.5t-42.5 -19t-34.5 9t-26.5 26t-38 37t-42 41t-29.5 29v-204zM888 592
q-89 0 -89 43q0 22 -13 36t-32.5 14t-33.5 -13.5t-14 -35.5q-1 -46 36 -83t87 -48v-51q0 -21 13.5 -34.5t33.5 -13.5t32.5 13t12.5 32v54q55 13 90 49t35 84t-31 80q-56 59 -137 59q-49 0 -63.5 16.5t-14.5 31.5t22 29.5t44 14.5q33 0 60.5 -11.5t27.5 -31.5q0 -21 13 -35
t33 -14t33.5 12.5t13.5 36.5q0 46 -36.5 81.5t-85.5 47.5v52q0 19 -13.5 33t-33.5 14t-33 -13.5t-13 -32.5v-51q-55 -13 -90 -49t-35 -86t39 -87q46 -50 132 -50q43 0 59 -17.5t16 -31.5t-21.5 -29t-43.5 -15zM1734 1176q9 0 17 -7t8 -19v-848q0 -13 -8 -20t-17 -7h-1709
q-25 0 -25 27v848q0 26 25 26h1709z" />
    <glyph glyph-name="money_transfer_alt" unicode="&#xe507;" horiz-adv-x="2050" 
d="M1753 1072q0 22 -22 22h-1410q-21 0 -20 -22v-701q0 -22 20 -21h1410q22 0 22 21v701zM783 121.5q0 -20.5 15 -35.5l189 -190q15 -15 36.5 -15t35.5 15l191 191q14 14 14 34.5t-14 36.5q-16 15 -36.5 15t-36.5 -15l-103 -103v169q0 21 -16 35.5t-36 14.5t-34.5 -14.5
t-14.5 -35.5v-169q-8 7 -15 13l-75 76q-27 29 -48.5 29.5t-36.5 -15.5t-15 -36.5zM1213 1281q20 0 36 15q15 16 15 36.5t-15 35.5l-190 190q-15 15 -36.5 15t-35.5 -15l-190 -191q-14 -14 -14 -34.5t14 -36.5q16 -15 36.5 -14.5t28.5 8.5t24.5 23.5t35.5 35.5l51 50v-169
q0 -21 14.5 -36t34.5 -15t35.5 15t15.5 36v169q8 -7 36.5 -35t55.5 -56q28 -27 48 -27zM961 652q0 -42 67 -41q25 0 42.5 13t17.5 24q0 17 -20 28.5t-48 11.5q-65 0 -102 41q-33 31 -33 73t29.5 71.5t72.5 39.5v42q0 16 11.5 27t27.5 11t27 -11.5t11 -27.5v-42
q101 -34 101 -110q0 -16 -11 -26.5t-27 -10.5t-27.5 10.5t-11.5 23.5q0 41 -67 41q-23 0 -41.5 -12t-18.5 -24q1 -40 65 -39q64 0 101 -38t36.5 -78t-29 -69.5t-72.5 -40.5v-44q0 -16 -11 -26.5t-27 -10.5t-28 11t-12 28v42q-68 18 -83.5 54.5t-15.5 54.5t10.5 29t26.5 11
t27.5 -11t11.5 -25zM758 1720.5q131 35.5 273 35.5t272 -37.5t244 -105t207 -161t158.5 -208t101.5 -245t35 -272.5t-37.5 -272t-104 -244t-161 -207t-208 -159t-245.5 -102.5t-272.5 -35t-272 38.5t-244 104.5t-206.5 161t-159 208t-102.5 244.5t-35.5 272t38.5 272.5
t104.5 244t161 206.5t208 159.5t245 102z" />
    <glyph glyph-name="mortgage" unicode="&#xe508;" horiz-adv-x="1606" 
d="M732 605q92 0 139 43.5t47 118.5t-47.5 118.5t-102.5 43.5q-90 0 -137.5 -44t-47.5 -119q0 -74 47.5 -117.5t101.5 -43.5zM654 756q0 32 7.5 49.5t20.5 31t30 21.5t37.5 8t38.5 -8t31 -21.5t20.5 -32t7.5 -49t-27.5 -60t-68.5 -29.5t-69 29t-28 61zM1299 858
q69 0 87.5 -32t18.5 -66t-29.5 -59.5t-78.5 -26.5h-35v184h37zM1159 611v63h-125v248h-67v-311h192zM331 642q37 -37 107 -37t92.5 37.5t22.5 65.5q0 59 -70 81q-70 18 -70 48q-1 29 37 29t57 -19l46 51q-33 31 -75 31q-68 0 -102 -27.5t-34 -67.5t20 -58t40 -26t52 -15.5
t32 -33.5q0 -35 -43 -35t-64 31zM1477 765q0 157 -183 157h-99v-311h110q67 0 119.5 42.5t52.5 111.5zM490 1214h827v114h-827v-114zM1544 1214q26 0 44.5 -19.5t18.5 -47.5v-762q0 -27 -18.5 -46.5t-44.5 -19.5h-1282q-26 0 -43.5 19.5t-17.5 46.5v762q0 27 17 47t44 20
h163v114h-297v-1558q0 -27 -20 -45t-46 -18t-44 18t-18 45v1774q0 26 17.5 45.5t44.5 19.5t46.5 -19.5t19.5 -45.5v-89h1373q26 0 45.5 -20t19.5 -46.5t-19.5 -43.5t-45.5 -17h-120v-114h163z" />
    <glyph glyph-name="mortgage_alt" unicode="&#xe509;" 
d="M1182 773h53v-199h100v-52h-153v251zM710 593q16 -26 50 -26t34 27q0 16 -16.5 23t-41.5 15q-25 9 -41 22.5t-16 47.5t29.5 55t71.5 21t69 -25l-36 -40q-13 14 -45 14t-32 -24q0 -19 42 -33t56.5 -30.5t14.5 -39.5q0 -40 -28.5 -61.5t-73.5 -21.5t-76 29zM1085 647
q0 33 -22.5 56.5t-54.5 23.5t-55.5 -23.5t-23.5 -56.5t23.5 -56.5t55.5 -23.5t54.5 23.5t22.5 56.5zM872 646q0 60 38.5 96t96.5 36t96.5 -36t38.5 -96t-38.5 -94.5t-96.5 -34.5t-96.5 34.5t-38.5 94.5zM1533 651q0 36 -26.5 53t-57.5 17h-32v-147h30q40 1 63 21t23 56z
M1445 773q146 0 146 -127q0 -52 -41.5 -88t-95.5 -36h-89v251h80zM1023 1755q142 0 272.5 -36.5t302.5 -137t311 -336t139 -514.5t-138.5 -514t-374.5 -372.5t-506 -137.5q-271 0 -520 140v1252h237v-92h-131q-21 0 -34.5 -16t-13.5 -39v-611q0 -22 13.5 -37.5t34.5 -15.5
h1030q21 0 35.5 15.5t14.5 37.5v611q0 23 -15 39t-35 16h-132v92h97q21 0 36.5 13.5t15.5 35.5t-15.5 37t-36.5 15h-1101v71q0 21 -16 36.5t-38 15.5t-36 -16t-14 -36v-1354q-290 218 -347.5 453.5t-57.5 368.5t36.5 264t103.5 244.5t160 207.5t207 160.5t244 103t272 36.5z
M799 1007v92h664v-92h-664z" />
    <glyph glyph-name="debt_collection" unicode="&#xe510;" horiz-adv-x="2448" 
d="M1014 447q0 -52 93 -52q25 0 47 15.5t22 31.5q0 24 -26 38t-61 14q-83 0 -127 46q-45 46 -45 99q0 52 37 90.5t94 51.5v54q0 19 14.5 33.5t35.5 14.5t34.5 -14t13.5 -35v-55q88 -26 108.5 -68t20.5 -67t-14.5 -39t-34.5 -14t-34.5 15.5t-14.5 31.5q0 26 -28 38t-58 12
t-53 -15t-23 -31q1 -51 83 -51t129 -47q47 -48 47 -100t-36.5 -89.5t-94.5 -50.5v-57q0 -19 -14.5 -33.5t-34.5 -14.5t-34.5 14t-14.5 36v55q-88 22 -116 83t-5.5 84t42.5 23t34 -14.5t14 -32.5zM2448 651q0 -224 -77 -440h-246q-93 -144 -239.5 -177t-237.5 -33h-1152
q-49 2 -71 24.5t-22 52.5v57q2 41 30 58.5t63 17.5h240q146 -157 354 -157t350.5 143.5t142.5 346t-143.5 344.5t-348.5 142t-346 -148h-458q-110 0 -108 77v56q0 44 37 61t71 17h1138q30 0 33 38t-25 38h-336q-58 0 -81 38q-10 17 -11 39v57q0 87 92 94h512
q227 0 361.5 -210t154.5 -240h289q34 -153 34 -296zM287 289q-106 0 -108 77v58q0 75 108 75h321q10 -112 69 -210h-390zM181 578q-48 0 -78 12.5t-30 63.5v73q0 75 108 75h501q-64 -98 -74 -224h-427z" />
    <glyph glyph-name="debt_collection_alt" unicode="&#xe511;" horiz-adv-x="2022" 
d="M393 615q-83 0 -83 -60v-43q3 -58 83 -58h298q-46 78 -52 161h-246zM230 734q0 -60 82 -60h327q6 91 57 174h-384q-82 0 -82 -59v-55zM1124 685.5q27 0.5 27 48.5q0 28 -30 56.5t-70 39.5v42q0 16 -10.5 27t-26.5 11t-26.5 -11t-10.5 -27v-42q-43 -9 -71.5 -38.5
t-28.5 -69.5q1 -40 25 -66q46 -47 97 -47q52 0 63.5 -13.5t11.5 -25.5t-17 -23.5t-44 -11.5q-59 0 -62 38q0 16 -11 26.5t-27 10.5t-27 -10.5t-11 -39.5t30 -57t70 -39l-1 -42q0 -16 10.5 -26.5t26.5 -10.5t27 10.5t11 26.5v42q43 9 72 38.5t29 61.5q0 57 -42 89t-86 32
t-57 13.5t-13 25.5t17 24t35 12q26 0 48.5 -9t22.5 -27t11 -28.5t38 -10zM553 393q-44 0 -62 -30q-8 -13 -9 -28v-44q2 -36 37 -52q15 -7 34 -7h882q195 0 269.5 64.5t95.5 97.5h191q-103 -302 -369 -494.5t-598 -192.5q-276 0 -511 137t-374 372.5t-139 514.5t176 577.5
t441 372.5t397 74t246.5 -27t266.5 -102.5t298 -257.5t198 -409h-223q-15 23 -36.5 57t-116 160t-241.5 126h-392q-71 -3 -71 -71v-45q3 -58 71 -58h257q22 0 19 -29.5t-25 -29.5h-872q-44 0 -63.5 -19.5t-19.5 -39.5v-43q0 -60 83 -60h350q109 115 265 115t266.5 -109
t110.5 -266t-110.5 -265.5t-267.5 -108.5t-270 120h-184z" />
    <glyph glyph-name="credit_report" unicode="&#xe512;" horiz-adv-x="1268" 
d="M1122 146v971h-274q-30 0 -51 21.5t-21 51.5v273h-631v-1317h977zM1269 1190v-1117q0 -31 -21.5 -52t-50.5 -21h-1124q-32 0 -52.5 21t-20.5 52v1463q0 31 20.5 52t52.5 21h775q30 0 53 -20q89 -89 162 -163t79 -80l60 -60q38 -39 52 -53q14 -13 15 -43zM489 330
q-37 0 -62 32l-164 221q-29 42 -13 71t36 44t52 10.5t52 -30.5l101 -136l324 436q19 26 52 31.5t59 -14.5t30.5 -51.5t-14.5 -57.5l-388 -524q-28 -32 -65 -32z" />
    <glyph glyph-name="credit_report_alt" unicode="&#xe513;" 
d="M1509 975h-322q-22 0 -36.5 15.5t-14.5 36.5v319h-539q-23 0 -40.5 -16t-17.5 -39v-1118q0 -23 17.5 -39.5t40.5 -16.5h856q23 0 39.5 16.5t16.5 39.5v802zM1239 1078h242l-242 240v-240zM1024 1755q142 0 272.5 -36.5t244.5 -103t207 -160t160 -207t103.5 -244.5
t36.5 -272.5t-36.5 -272.5t-103.5 -244.5t-160 -207t-207 -160t-244.5 -103.5t-272.5 -37t-272.5 37t-244.5 103.5t-207 160t-160 207t-103.5 244.5t-36.5 272.5t36.5 272.5t103.5 244.5t160 207t207 160t244.5 103t272.5 36.5zM963 393q-19 -24 -48 -24t-48 24l-126 169
q-16 19 -11.5 44.5t24.5 40.5t44 11t40 -24l76 -104l247 334q15 19 41 23t46 -11t22.5 -39t-11.5 -44z" />
    <glyph glyph-name="money" unicode="&#xe514;" horiz-adv-x="2217" 
d="M1112 738q50 0 71.5 -22t21.5 -42t16.5 -36t39.5 -16t40.5 16.5t17.5 42.5q0 95 -61 128t-91 40v64q0 23 -16.5 40t-42.5 17t-43 -16.5t-17 -36.5v-68q-68 -14 -112.5 -60.5t-44.5 -105.5q1 -59 41 -102q72 -76 172 -76q54 0 85 -31q11 -6 11 -26q0 -21 -27 -39.5
t-75 -18.5t-68 19q-21 19 -21 41t-17.5 38.5t-41.5 16.5t-42.5 -15.5t-18.5 -43.5q0 -54 52 -109q33 -38 104 -55v-69q0 -22 16.5 -38.5t40.5 -16.5t41.5 14t17.5 41v69q70 11 114 57t44 107t-46 113q-63 63 -169 63q-63 0 -85 35t10.5 58t82.5 23zM0 1111q0 30 29 30
l2160 2q10 0 19 -10t9 -22v-1080q0 -13 -9 -22t-19 -9h-2160q-10 0 -19.5 9t-9.5 22v1080z" />
    <glyph glyph-name="money_alt" unicode="&#xe515;" horiz-adv-x="2050" 
d="M1166 803q0 -16 -11.5 -26.5t-27.5 -10.5t-27 10.5t-11 23.5t-13.5 27.5t-45.5 14.5q-31 0 -49.5 -12.5t-18.5 -22.5q0 -9 13 -25t65 -16q51 0 88 -37t37 -79t-29.5 -71t-73.5 -40v-43q0 -16 -11 -27t-27 -11t-27.5 11.5t-11.5 27.5v44q-41 9 -71 38t-30 59t11 40.5
t27 10.5t27.5 -11.5t11.5 -27.5q0 -31 63 -39q29 0 46.5 12.5t17.5 24.5t-14 26t-66 15q-52 -1 -88 37t-35 78t29.5 70.5t72.5 39.5v44q0 16 11 26.5t27 10.5t27.5 -10.5t11.5 -26.5v-44q102 -29 102 -111zM298 376q0 -19 20 -19h1418q19 0 19 19v710q0 19 -19 19h-1418
q-20 -2 -20 -20v-709zM1914.5 1239q134.5 -235 133.5 -514t-139.5 -513t-376 -370.5t-515 -134t-511.5 142t-370.5 376t-134.5 514.5t140.5 510.5t373 369t513.5 136.5q280 -1 516 -141.5t370.5 -375.5z" />
    <glyph glyph-name="quick_cash" unicode="&#xe516;" horiz-adv-x="1587" 
d="M680 782q0 -70 118 -69q40 0 85 -18t76 -52q51 -49 51 -117t-45.5 -116.5t-119.5 -63.5v-71q0 -26 -18.5 -43.5t-44.5 -17.5t-45 17.5t-18 43.5v71q-65 16 -101 51q-64 61 -64 130q0 26 18 44t44 18t44.5 -19t18.5 -40t25 -44t75 -23q51 0 80 20t29 36t-6.5 24t-9.5 14
q-30 29 -86 30q-111 2 -178 69q-54 50 -54 122q0 98 66 133.5t102 42.5v71q0 26 19 44.5t45 18.5t44 -19t18 -46v-70q53 -11 90 -39q75 -58 75 -139q0 -25 -18.5 -43.5t-43.5 -18.5t-43.5 18.5t-18.5 42.5t-26 39q-24 23 -75 24t-79.5 -19t-28.5 -36zM770 14q110 0 191 22.5
t190.5 86.5t193.5 208.5t84 294.5t-50 266t-137 202.5t-203 136.5t-247 50t-246 -50t-201 -136.5t-135 -202.5t-49 -246t49 -245.5t135 -201.5t200.5 -135.5t224.5 -49.5zM1587 645q0 -215 -106 -396.5t-288.5 -288.5t-400.5 -107q-165 0 -309 62t-251 169.5t-169.5 251.5
t-62.5 278t25 231t96.5 226.5t237 239.5t363.5 128v175h-69q-30 0 -51 21t-21 49.5t21 49.5t51 21h283q29 0 47.5 -21t18.5 -49.5t-18.5 -49.5t-47.5 -21h-73v-175q223 -19 412 -162l91 92q32 32 75.5 32t75.5 -32t32 -75t-32 -75l-93 -91q163 -224 163 -483z" />
    <glyph glyph-name="quick_cash_alt" unicode="&#xe517;" 
d="M947 768q0 11 20 25.5t53.5 14.5t53.5 -14t19 -31q0 -18 12.5 -30.5t30.5 -12.5t31.5 13t13.5 35q0 52 -52 93q-26 19 -64 28v49q0 19 -12.5 32t-31 13t-31.5 -12.5t-13 -31.5v-49q-51 -11 -83.5 -45.5t-33.5 -80.5t29 -76q55 -56 118 -56q84 0 84 -48q0 -11 -20 -25.5
t-60 -14.5t-52.5 19t-12.5 31t-12.5 25t-30.5 13t-31.5 -12t-13.5 -46t34 -68t83 -43v-50q-1 -18 12 -31t31 -13t31 12.5t13 31.5v49q51 11 84 45.5t33 80.5q1 46 -41 89t-119 43q-39 0 -51 14t-16.5 18.5t-4.5 15.5zM1027.5 1119q92.5 0 173.5 -35t141.5 -95.5t95.5 -141.5
t35 -173.5t-35 -174t-95.5 -142t-141.5 -95.5t-173.5 -35t-173.5 35t-142 95.5t-95.5 142t-34.5 174t34.5 173.5t95.5 141.5t142 95.5t173.5 35zM1077 1354h49q21 0 35 14.5t14 35t-14.5 35t-34.5 14.5h-198q-21 0 -35 -14.5t-14 -35t14 -35t35 -14.5h49v-125
q-214 -18 -361 -178t-147 -385t164.5 -388t394.5 -163t393.5 163.5t163.5 394.5q0 192 -115 338l65 66q23 22 23 52.5t-22 52.5t-52.5 21.5t-53.5 -22.5l-65 -64q-130 98 -288 112v125zM1024 1755q142 0 272.5 -36.5t244.5 -103t207 -160t160 -207t103.5 -244.5t36.5 -272.5
t-36.5 -272.5t-103.5 -244.5t-160 -207t-207 -160t-244.5 -103.5t-272.5 -37t-272.5 37t-244.5 103.5t-207 160t-160 207t-103.5 244.5t-36.5 272.5t36.5 272.5t103.5 244.5t160 207t207 160t244.5 103t272.5 36.5z" />
    <glyph glyph-name="contract" unicode="&#xe518;" horiz-adv-x="1149" 
d="M462 595q0 -40 33 -66.5t81 -26.5t81.5 27t33.5 63q0 73 -77 95v899q77 24 77 0q0 -413 359 -772q50 -51 100 -93l-247 -523h-656l-247 523q172 144 289 327q130 195 151.5 339t21.5 199q0 29 77 0v-899q-77 -21 -77 -92zM77 -146v193h994v-193h-994z" />
    <glyph glyph-name="contract_alt" unicode="&#xe519;" 
d="M1112 1389q0 23 -58 0v-686q25 -7 41.5 -26.5t16.5 -46.5t-25.5 -48.5t-62.5 -21.5t-62.5 21.5t-25.5 48.5t16.5 46.5t41.5 26.5v686q-58 20 -58 0q0 -356 -351 -661l189 -400h500l189 400q-300 260 -325.5 439.5t-25.5 221.5zM1405 66v149h-762v-149h762zM1024 1755
q142 0 272.5 -36.5t302 -136.5t310.5 -335.5t139 -514.5t-175.5 -577t-441 -373t-407.5 -75t-272.5 37t-244.5 103.5t-207 160.5t-160 207.5t-103.5 244.5t-36.5 272.5t36.5 272t103.5 244t160 207t207 160t244.5 103t272.5 36.5z" />
    <glyph glyph-name="complaint" unicode="&#xe520;" horiz-adv-x="1705" 
d="M776 1091.5q-33 -34.5 -29 -78.5l35 -431q2 -26 20 -46t46 -22t50 17.5t25 50.5l34 431q4 43 -29 78t-76 35t-76 -34.5zM852 456q-30 0 -50 -21t-20 -51v-14q0 -31 20 -51t50 -20t50.5 20t20.5 51v14q0 30 -20.5 51t-50.5 21zM1627 1349q33 0 55.5 -23t22.5 -56v-1113
q0 -34 -22 -56t-56 -22h-601l-147 -209q-9 -16 -27 -16t-27 16l-143 209h-603q-33 0 -56 21.5t-23 56.5v1113q0 33 23 56t56 23h1548z" />
    <glyph glyph-name="complaint_alt" unicode="&#xe521;" 
d="M457 1198q-25 0 -41.5 -17.5t-16.5 -41.5v-816q0 -26 16.5 -41.5t41.5 -15.5h442l104 -154q12 -20 25 -12.5t17 12.5l108 154h441q23 0 39.5 15.5t16.5 41.5v816q0 24 -16.5 41.5t-39.5 17.5h-1137zM1081.5 1009q22.5 -26 20.5 -57l-25 -317q-2 -23 -18.5 -37.5
t-37.5 -12.5q-43 4 -50 50l-24 317q-2 32 20.5 57.5t56.5 25.5q35 0 57.5 -26zM1024 542q22 0 37.5 -15t15.5 -38v-9q0 -23 -15.5 -38t-37.5 -15t-37.5 15t-15.5 38v9q0 23 15.5 38t37.5 15zM2048 731.5q0 -279.5 -139 -515t-374 -372.5t-511 -137t-511.5 137.5t-374 372.5
t-138.5 514.5t138.5 514.5t373.5 372t512.5 137t511.5 -136.5t373 -372t139 -515z" />
    <glyph glyph-name="getting_credit_card" unicode="&#xe522;" horiz-adv-x="2072" 
d="M0 1080v87q0 83 51.5 106t77.5 23h1034q-48 -123 -121 -216h-1042zM129 200q-52 0 -90.5 38.5t-38.5 90.5v530h843q-82 -52 -77.5 -113t16.5 -85l64 -136h-557v-74h592l118 -251h-870zM1381 1595q0 28 77 0v-902q-34 -9 -55.5 -34t-21.5 -52t8.5 -44.5t24 -30.5t36.5 -21
t56.5 -8t69.5 28.5t34 65.5t-21.5 61.5t-53.5 34.5v902q75 25 75 0q0 -405 363 -776q50 -53 99 -94l-247 -526h-659l-248 526q165 142 290 330q173 265 173 540zM994 -146v196h1001v-196h-1001z" />
    <glyph glyph-name="getting_credit_card_alt" unicode="&#xe523;" 
d="M1227 615q0 47 53 63v616q-53 18 -53 0q0 -277 -246 -531q-34 -35 -69 -64l169 -358h450l168 358q-266 233 -290 395t-24 200q0 20 -52 0v-616q52 -16 52 -63q0 -27 -23 -46.5t-56 -19.5t-56 19t-23 47zM1647 105v134h-682v-134h682zM286 430q0 -37 26 -62.5t63 -25.5
h593l-81 171h-404v49h380l-44 94q-16 32 -6.5 71t49.5 65h-576v-362zM286 942h711q46 59 83 147h-705q-37 0 -63 -25.5t-26 -62.5v-59zM1024 1755q142 0 272.5 -36.5t301.5 -136.5t310.5 -336t139.5 -515t-139 -514.5t-374 -372.5t-511 -137t-511 137t-374 372.5t-139 514.5
t176 577.5t441 372.5t407 74z" />
    <glyph glyph-name="buying_car" unicode="&#xe524;" horiz-adv-x="1956" 
d="M1763.5 511.5q46.5 48.5 46.5 118.5t-46 117.5t-115 47.5t-115.5 -46.5t-50.5 -118.5q2 -69 49.5 -118t116.5 -49q68 0 114.5 48.5zM1614 928l-121 326q-13 35 -32.5 57.5t-59.5 23.5h-846q-40 -1 -60 -23.5t-32 -57.5l-120 -326h1271zM306 463q34 0 64 13t52.5 35.5
t35 53t12.5 65t-12.5 65t-35 52.5t-52 35t-63.5 13t-63 -12.5t-51.5 -34.5t-34.5 -53t-12 -65.5t12 -65t34.5 -53t51 -35.5t62.5 -13zM1957 701v-528h-157v-168q0 -100 -73.5 -138t-147.5 2t-74 136v168h-1055v-168q0 -97 -73.5 -136.5t-146.5 -1.5t-73 138v168h-156v528
q0 95 58.5 155.5t117.5 65.5l159 415q24 67 79 107.5t142 40.5h841q166 0 220 -148l160 -415q58 -5 118.5 -65.5t60.5 -155.5z" />
    <glyph glyph-name="buying_car_alt" unicode="&#xe525;" 
d="M1428 813q32 0 50 -8t31 -22.5t21 -33.5t8 -51t-28.5 -62t-70.5 -30t-72 29.5t-30 73t29.5 74t61.5 30.5zM600 813q32 0 49.5 -8t31.5 -22.5t22 -33.5t8 -52t-30.5 -62t-71.5 -29t-70 29.5t-29 73t29 74t61 30.5zM1629 426v326q0 60 -36.5 96.5t-73.5 41.5l-100 256
q-34 90 -134 92h-522q-102 -2 -134 -92l-100 -256q-37 -5 -72.5 -41.5t-35.5 -96.5v-326h96v-104q0 -59 33.5 -77.5t57 -18.5t57 18.5t33.5 77.5v104h652v-104q0 -59 33.5 -77.5t57 -18.5t57 18t33.5 78v104h98zM1024 1755q142 0 272.5 -36.5t302 -136.5t310.5 -335.5
t139 -514.5t-175.5 -577t-441 -373t-407.5 -75t-272 37t-244 103.5t-207.5 160.5t-160.5 207.5t-103.5 244t-36.5 272t36.5 272.5t103.5 244.5t160.5 207t207.5 160t244 103t272 36.5zM1416 893h-784l74 202q15 47 56 49h524q41 -2 56 -49z" />
    <glyph glyph-name="paying_for_college" unicode="&#xe526;" horiz-adv-x="1936" 
d="M574 -206q0 -34 -20 -58t-52 -26t-57.5 20t-25.5 64l26 316q2 22 18 35.5t37 11.5q44 -4 49 -47zM953 458q9 -4 15 -4t15 4l619 311v-216q0 -118 -179 -208q-173 -89 -431 -92.5t-450 83.5l11 323zM341 553v214l98 -48l12 -335q-110 76 -110 169zM471 794q-15 -7 -23 -18
l-448 226l967 483l969 -486l-967 -480l-395 196l466 234q21 10 29.5 33.5t-3.5 45.5t-35 30.5t-47 -3.5z" />
    <glyph glyph-name="paying_for_college_alt" unicode="&#xe527;" 
d="M1049 975q36 19 58 -20q8 -16 2.5 -32t-21.5 -24l-331 -166l281 -139l689 342l-689 345l-689 -344l320 -161q5 8 14 14zM1037 547q-5 0 -10 3l-285 144l-7 -231q135 -61 319 -59t310 66q125 64 125 147v154l-441 -221q-6 -3 -11 -3zM739 303q-2 29 -34 33t-39 -33
l-18 -225q0 -30 18.5 -46t40.5 -14t36 19t14 41zM591 617q0 -64 80 -120l-9 239l-71 33v-152zM2048 731.5q0 -279.5 -139 -515t-374 -372.5t-511 -137t-511.5 137.5t-374 372.5t-138.5 514.5t138.5 514.5t373.5 372t512.5 137t511.5 -136.5t373 -372t139 -515z" />
    <glyph glyph-name="owning_home" unicode="&#xe528;" horiz-adv-x="1917" 
d="M291 1525h210v-224l410 234q48 27 99 0l908 -520l-102 -178l-859 490l-856 -490l-101 178l291 170v340zM1385 443v276h-270v-276h270zM805 443v276h-272v-276h272zM1677 0h-1436v842l716 397l720 -397v-842z" />
    <glyph glyph-name="owning_home_alt" unicode="&#xe529;" 
d="M1347 757v-205h-205v205h205zM702 552v205h205v-205h-205zM677 1365h-154v-256l-224 -128l77 -134l648 370l649 -370l77 134l-687 392q-39 22 -77 0l-309 -178v170zM1566 215v635l-542 300l-541 -300v-635h1083zM2048 731.5q0 -279.5 -139 -515t-374 -372.5t-511 -137
t-511.5 137.5t-374 372.5t-138.5 514.5t138.5 514.5t373.5 372t512.5 137t511.5 -136.5t373 -372t139 -515z" />
    <glyph glyph-name="debt" unicode="&#xe530;" horiz-adv-x="3218" 
d="M1793 583q61 48 83 116t-7 131q-41 79 -131 96t-159 -19q-68 -36 -108 -20t-35 47t28.5 52t39.5 29q34 17 75 19t54 -24q14 -27 39.5 -35.5t49.5 3.5t32 37t-6 56t-67.5 69.5t-168.5 17.5l-32 65q-29 51 -88 31q-24 -13 -33 -38.5t3 -50.5l33 -66q-61 -49 -82.5 -115
t9.5 -130t115 -93t187 23q57 26 87 15.5t41 -32.5t-26.5 -69.5t-97.5 -49.5t-74 29q-13 25 -38.5 33.5t-49.5 -4.5t-33 -38.5t5 -53.5q30 -59 100 -84t139 -5l32 -66q11 -25 35.5 -34t51 3.5t35 38.5t-4.5 50zM1611 1485q161 0 318.5 -96.5t236.5 -260.5
q120 -240 61.5 -406.5t-105.5 -235.5l787 399l-244 80q-53 17 -58.5 73t37 77.5t76.5 10.5l437 -143q36 -13 52 -44t5 -64q-40 -123 -62 -191t-35 -107.5t-30 -90t-20 -60.5t-14 -22.5t-25.5 -20t-32 -9t-34.5 3.5q-34 10 -50 41t-5 68q0 1 17 49.5t24 76.5l39 118
l-1715 -867q-37 -18 -77 0l-617 313l-224 -114q-63 -33 -79 -41l-128 -64l-20 -11q-32 -16 -66 -5t-50 43t-5 66t43 50q1 0 19.5 9.5t25.5 13.5l66 32q59 30 97 50l282 143q34 17 79 0l615 -314l337 173q-264 9 -415.5 172t-193 380.5t76 398t265.5 253.5t309 73z" />
    <glyph glyph-name="debt_alt" unicode="&#xe531;" 
d="M871 802q-51 10 -76 55q-17 37 -4.5 75.5t48.5 68.5l-18 39q-8 14 -3 29.5t20 21.5q36 13 50 -17l19 -39q66 17 109.5 -17t36.5 -58t-22 -31t-30 -2t-21 17q-10 19 -49.5 17.5t-59.5 -37.5t9 -46.5t57 7.5q83 38 125 9.5t56 -58.5t2.5 -69t-47.5 -68l18 -38
q8 -14 3.5 -29.5t-20.5 -22.5q-33 -15 -51 17l-18 39q-41 -10 -82 3.5t-58 49.5t16 52q14 8 29.5 3t21.5 -17t15.5 -15.5t20 -3t21.5 3.5t25 10t27.5 24t4.5 34q-9 16 -30 16t-58 -16q-36 -17 -87 -7zM962 1226q-97 0 -170 -37q-141 -72 -191 -218.5t20 -286.5t170 -172
t150 -33l-197 -101l-360 184q-29 11 -46 0l-45 -21q-74 -39 -127 -66t-70.5 -36t-30 -16t-16.5 -8q-49 153 -49 306q0 152 36.5 283t103.5 244.5t160 207t207 160t244.5 103t272.5 36.5t272.5 -36.5t244.5 -103t207 -160t160 -207t103.5 -244.5t36.5 -272.5t-36.5 -272.5
t-139 -304.5t-337.5 -310.5t-529 -137t-548 170.5t-373 443.5l276 140l359 -183q24 -11 47 0l1004 507l-22 -68q-24 -69 -28 -81t5.5 -31t28.5 -25t39.5 3t23.5 21t12 40t22 69.5t41 123.5q27 83 -23 96l-256 84q-19 7 -38.5 -2t-25.5 -29t3 -39.5t29 -25.5l144 -46
l-460 -233q55 82 63.5 181.5t-27.5 171.5q-61 122 -152 176.5t-188 54.5z" />
    <glyph glyph-name="building_credit" unicode="&#xe532;" horiz-adv-x="1460" 
d="M464 1363q-26 0 -44.5 18.5t-18.5 44.5t18.5 44t44.5 18h203v205q0 26 18.5 44t44.5 18t44.5 -18t18.5 -44v-205h204q26 0 45 -18t19 -44t-19 -44.5t-45 -18.5h-204v-204q0 -26 -18 -45t-44 -19t-45 19t-19 45v204h-203zM225 253v-55h606v55h-606zM0 514h1461v-412
q0 -42 -29.5 -72t-71.5 -30h-1258q-42 0 -72 29.5t-30 72.5v412zM1360 854q42 0 71.5 -28.5t29.5 -72.5v-66h-1461v66q0 43 29.5 72t72.5 29h1258z" />
    <glyph glyph-name="building_credit_alt" unicode="&#xe533;" 
d="M462 312q0 -33 22.5 -55.5t54.5 -22.5h971q32 0 54.5 22.5t22.5 55.5v318h-1125v-318zM539 891q-32 0 -54.5 -22t-22.5 -55v-51h1125v51q0 33 -22.5 55t-54.5 22h-971zM977 1283v-156q0 -22 14 -35.5t34 -13.5t33.5 13.5t13.5 35.5v156h158q21 0 35 15t14 34.5t-14.5 34
t-34.5 14.5h-158v156q0 21 -13.5 35t-33.5 14t-34 -14t-14 -35v-156h-158q-21 0 -35 -14.5t-14 -34t14.5 -34.5t34.5 -15h158zM1103 427v-42h-468v42h468zM1537 -108q-235 -138 -513 -138t-513.5 138.5t-373 372.5t-137.5 513.5t138 513.5t373 372t513.5 138t513 -138
t372.5 -372t138 -513.5t-138 -514t-373 -372.5z" />
    <glyph glyph-name="prepaid_cards" unicode="&#xe534;" horiz-adv-x="2518" 
d="M2122 558q-72 72 -170 73q-98 -1 -99 61q0 20 27.5 37t55.5 17q45 0 77.5 -14t32.5 -40t17 -43.5t41 -17.5t41.5 16.5t17.5 46.5q0 59 -45 101.5t-109 60.5v65q0 24 -15.5 41t-41.5 17t-43.5 -16.5t-17.5 -39.5v-66q-106 -26 -130.5 -81.5t-24.5 -101.5t39 -86
q71 -74 175 -74q57 0 76 -21t19 -40t-27.5 -37t-55.5 -18q-111 0 -111 54q0 29 -17 45.5t-41 16.5t-40.5 -16.5t-16.5 -44.5q-1 -58 44 -103.5t108 -60.5v-65q0 -26 17 -43.5t41 -17.5t41.5 17.5t17.5 40.5v68q69 15 113 60t44 91q0 78 -40 118zM2352 976q167 -167 167 -403
t-167 -404.5t-403.5 -168.5t-403.5 169t-167 404t166.5 402.5t403.5 167.5t404 -167zM1111 262v79h-812v-79h812zM133 0q-86 0 -109.5 54.5t-23.5 82.5v553h1232q-34 -197 41 -384.5t228 -305.5h-1368zM0 919v86q0 57 38.5 97.5t94.5 40.5h1368q-119 -96 -186 -224h-1315z
" />
    <glyph glyph-name="prepaid_cards_alt" unicode="&#xe535;" 
d="M1300.5 453.5q110.5 -110.5 266.5 -110.5t265 112t109 265.5t-108.5 264t-266.5 110.5q-156 0 -266 -109t-110 -265.5t110.5 -267zM286 797v-364q0 -38 25.5 -64t61.5 -26h898q-156 126 -172 257t-4 197h-809zM373 1095q-35 0 -61 -26.5t-26 -65.5v-57h864q42 83 121 149
h-898zM1630 794q0 40 -66 40q-26 0 -44 -11.5t-18 -25.5q0 -39 64 -39t102 -38q37 -38 37 -78t-28.5 -69.5t-74.5 -39.5v-44q0 -16 -10.5 -27.5t-26.5 -11.5t-27.5 12t-11.5 28v43q-68 18 -90.5 67t-5.5 65t33 16t27 -11t11 -28q0 -36 65 -36q27 0 45 12t18 24q0 40 -66 39
q-66 0 -101 37q-36 37 -36 78t29.5 70.5t72.5 39.5v44q0 16 11.5 26.5t27.5 10.5t27.5 -11t11.5 -27v-43q100 -33 100 -109q0 -16 -11.5 -27.5t-27.5 -11.5t-26.5 11.5t-10.5 24.5zM481 517v51h535v-51h-535zM2048 731.5q0 -279.5 -139 -515t-374 -372.5t-511 -137
t-511.5 137.5t-374 372.5t-138.5 514.5t138.5 514.5t373.5 372t512.5 137t511.5 -136.5t373 -372t139 -515z" />
    <glyph glyph-name="payday_loan" unicode="&#xe536;" horiz-adv-x="2292" 
d="M1404 993q-86 0 -86 43q0 22 -13.5 35.5t-32.5 13.5t-32.5 -13.5t-13.5 -35.5q0 -46 36 -82t85 -47v-51q0 -21 13.5 -34t33 -13t32.5 12.5t13 32.5v53q55 13 89 47.5t34 83.5q0 48 -30 80q-55 56 -137 57q-48 0 -62 17t-14 32t21.5 28.5t43.5 13.5q38 0 62.5 -12
t24.5 -31t12.5 -33.5t32.5 -14.5t33.5 13.5t13.5 36.5q0 46 -35 79.5t-87 47.5v51q0 19 -12.5 33t-32 14t-32.5 -13t-13 -32v-52q-55 -11 -90 -46.5t-35 -84.5q0 -48 31 -80q56 -57 138 -57q43 0 59 -18t16 -32t-22 -28t-44 -14zM2075 784v114h-353v-114h353zM2075 1297v117
h-353v-117h353zM2075 1039v118h-353v-118h353zM651.5 885q20.5 0 36.5 -15t15.5 -35t-14.5 -37l-150 -150q-13 -13 -38 -13t-36.5 17t-11.5 33v258q0 21 14.5 36t35 15t36 -15.5t15.5 -35.5v-138l64 64q13 16 33.5 16zM2075 517v114h-804v-114h804zM2075 247v115h-804v-115
h804zM499.5 290q82.5 0 154.5 31.5t125 85.5t84 125t31 152.5t-31 153.5t-84 125.5t-125 84.5t-154.5 31t-154 -31t-125 -84.5t-84.5 -125.5t-31 -153.5t31 -152.5t84.5 -125t125 -85.5t154 -31.5zM897 991q106 -131 106 -323t-148.5 -339t-354.5 -147t-353 148.5
t-147 347.5q0 200 131 344t318 162v104h-44q-19 0 -32 13t-13 33t12.5 31.5t32.5 11.5h182q16 0 30 -11.5t14 -31.5t-14 -33t-30 -13h-48v-101q150 -17 262 -99l47 46q21 21 49 20.5t49 -19.5t21 -48t-22 -48zM1153 685q0 149 -64 278q37 56 37 114q0 120 -49.5 160.5
t-61.5 47.5v253q0 30 22 50.5t52 20.5h1129q30 0 52.5 -20.5t22.5 -50.5v-1468q0 -30 -22.5 -50t-52.5 -20h-1129q-30 0 -52 20t-22 50v217q138 177 138 398z" />
    <glyph glyph-name="payday_loan_alt" unicode="&#xe537;" 
d="M869 270q0 -19 13 -32t32 -13h711q19 0 33 12.5t14 32.5v924q0 19 -13.5 32t-33.5 13h-711q-19 0 -32 -12.5t-13 -32.5v-160q68 -42 68 -122q0 -43 -23 -79q42 -85 43 -175q0 -139 -88 -251v-137zM838 910.5q0 17.5 -14 30.5q-30 29 -61 0l-29 -29q-74 54 -165 62v63h30
q10 0 18.5 8.5t8.5 20.5t-8.5 19.5t-18.5 7.5h-114q-29 0 -29 -28t29 -28h28v-66q-120 -12 -201.5 -102.5t-81.5 -216.5t92.5 -218.5t223.5 -92.5t223 93.5t92 212.5q0 120 -68 203l31 30q14 13 14 30.5zM544 409q-51 0 -97 19.5t-79 54t-52.5 79.5t-19.5 96.5t19.5 96
t52.5 78t79 53t97 19.5t97 -19.5t79 -53t52.5 -78t19.5 -96t-19.5 -96.5t-52.5 -79.5t-79 -54t-97 -19.5zM1059 879q0 -25 35 -26q35 -2 48 7.5t13 21.5t-16.5 19.5t-50.5 7.5t-62 32q-24 20 -24 53q0 32 22.5 54.5t55.5 29.5v33q0 27 21 27t29 -8t8 -20v-32q27 -8 51.5 -28
t24.5 -52t-30 -32q-11 0 -20 8.5t-9 20.5q0 28 -46 28q-22 0 -36 -8.5t-14 -19.5q0 -29 50 -29t80 -32q24 -18 24 -52q0 -33 -22 -55t-55 -29v-35q0 -28 -20.5 -28t-29 8.5t-8.5 21.5v33q-30 6 -53 28t-23 44t8 30.5t20.5 8.5t20.5 -9t8 -21zM1031 381v73h505v-73h-505z
M1031 552v72h505v-72h-505zM514 658q0 -28 32 -32q15 0 23 8l95 95q8 10 8 23t-10 22t-22.5 9t-21.5 -10l-40 -39v85q0 13 -9 23.5t-23 10.5t-23 -10.5t-9 -23.5v-161zM1314 880v74h222v-74h-222zM1314 719v73h222v-73h-222zM1314 1042v73h222v-73h-222zM2048 731.5
q0 -279.5 -139 -515t-374 -372.5t-511 -137t-511.5 137.5t-374 372.5t-138.5 514.5t138.5 514.5t373.5 372t512.5 137t511.5 -136.5t373 -372t139 -515z" />
    <glyph glyph-name="retirement" unicode="&#xe538;" horiz-adv-x="1717" 
d="M713 874q-110 0 -110 -148q0 -69 30.5 -109t86.5 -40q104 0 104 149q0 72 -24.5 110t-86.5 38zM754 728q0 -93 -42.5 -93t-42.5 93t42.5 93t42.5 -93zM1133 864h-68v-279h68v129l105 -129h90l-131 154l123 125h-88l-99 -112v112zM614 1150q110 43 208 43t202 -43
q49 -13 64 31t-29 65q-140 48 -236 49t-244 -52q-43 -21 -28 -61q7 -23 27 -30.5t36 -1.5zM1000 585v279h-59l-94 -65l31 -47l53 42v-209h69zM571 639v55h-38v170h-79l-118 -168v-57h134v-54h63v54h38zM1647 963q30 0 50.5 -21t20.5 -52v-281q0 -29 -20.5 -50t-51.5 -21
l-151 -1q-66 -152 -185 -254l-15 -283h-238l-17 143q-97 -31 -213 -31t-218 27l-17 -139h-225l-29 280q-160 129 -215 337q-49 2 -86 37.5t-37 74.5q0 67 37 104t86 37q48 221 244.5 366.5t470.5 145.5q145 0 305 -65q277 195 335 166q15 -8 7.5 -22.5t-44.5 -63.5t-55 -132
t38 -177t72 -125h151zM470 799v-105h-69l66 105h3z" />
    <glyph glyph-name="retirement_alt" unicode="&#xe539;" 
d="M1632 902h-114q-16 31 -48 83t-36.5 94t3.5 75t24 59t29 44t18.5 29.5t-4.5 17.5q-44 24 -261 -129q-114 51 -231 51q-216 0 -367.5 -112.5t-190.5 -283.5q-40 -1 -67.5 -30.5t-27.5 -69.5t27.5 -68t67.5 -30q39 -154 167 -259l22 -218h175l13 109q68 -22 161 -22t173 23
l13 -110h183l13 220q95 79 143 196l116 2q25 0 40.5 16.5t15.5 37.5l-2 218q0 25 -15.5 41t-39.5 16zM997 719q-1 -117 -81 -117q-44 0 -67 31.5t-23 84.5q0 115 86 115q48 0 66.5 -30t18.5 -84zM1153 1046q-84 34 -156 34q-71 0 -163 -34q-13 -5 -28 1.5t-21 22.5
q-13 35 23 49q109 39 188 39t183 -38q34 -16 26 -40q-15 -45 -52 -34zM1235 609h-51v216h51v-87l79 87h67l-95 -97l100 -119h-67l-84 100v-100zM771 650v-41h-48v41h-104v46l91 129h61v-132h30v-43h-30zM1081 609v161l-42 -32l-24 37l72 50h46v-216h-52zM942 719
q0 71 -32 71t-32 -71t32 -71t32 71zM723 693v82h-2l-51 -82h53zM2048 731.5q0 -279.5 -139 -515t-374 -372.5t-511 -137t-511.5 137.5t-374 372.5t-138.5 514.5t138.5 514.5t373.5 372t512.5 137t511.5 -136.5t373 -372t139 -515z" />
    <glyph glyph-name="user" unicode="&#xe600;" horiz-adv-x="1142" 
d="M765 753q162 0 270 -113.5t108 -265.5v-190q0 -148 -136.5 -197t-432.5 -49t-434 49t-140 197v190q0 150 109 264.5t273 114.5h383zM351 1391q94 94 224 94t221 -93.5t91 -226.5t-91 -225t-221 -92t-224 92.5t-94 224.5t94 226z" />
    <glyph glyph-name="user_alt" unicode="&#xe601;" 
d="M855 743q-148 0 -248 -104t-100 -241v-172q2 -134 126 -178.5t394 -44.5t358 31.5t124 75.5t36 116v172q0 140 -98.5 242.5t-245.5 102.5h-346zM1230.5 913.5q82.5 84.5 82.5 203.5q0 120 -83 205t-202 85t-203 -85.5t-84 -203.5q0 -119 83.5 -204t203.5 -85t202.5 84.5z
M1024 1755q142 0 272.5 -36.5t301.5 -136.5t310.5 -336t139.5 -515t-139 -514.5t-374 -372.5t-511 -137t-511 137t-374 372.5t-139 514.5t176 577.5t441 372.5t407 74z" />
    <glyph glyph-name="wifi" unicode="&#xe602;" horiz-adv-x="1858" 
d="M928 1082q118 0 294.5 -46t351.5 -221l-145 -144q-104 104 -234.5 156t-266.5 52t-267 -52t-234 -156l-144 144q176 176 351.5 221.5t293.5 45.5zM928.5 1485q169.5 0 422 -66.5t507.5 -319.5l-145 -140q-213 213 -427 268.5t-357.5 55.5t-358.5 -56t-427 -268l-143 140
q253 253 506 319.5t422.5 66.5zM573 531q147 147 357 147t359 -147l-143 -145q-89 91 -216.5 91t-212.5 -91zM1034 251q43 -43 43 -106q0 -93 -58.5 -119t-88.5 -26q-58 0 -103.5 43t-45.5 88t12 72.5t44.5 59t92.5 31.5q61 0 104 -43z" />
    <glyph glyph-name="wifi_alt" unicode="&#xe603;" 
d="M1023.5 1192q-117.5 0 -292.5 -46t-348 -219l99 -98q112 112 253.5 168t288.5 56t288.5 -56t253.5 -168l99 98q-173 173 -348.5 219t-293 46zM1025 774q203 0 344 -143l98 99q-91 91 -207 137t-236 46t-236 -45.5t-207 -137.5l98 -99q143 143 346 143zM1271 534
q-101 101 -245.5 101t-247.5 -101l99 -99q61 61 148 61t148 -61zM1024 168q42 0 72 29t30 71.5t-30 71.5t-72 29t-70.5 -29t-28.5 -71.5t28.5 -71.5t70.5 -29zM1024 1755q142 0 272.5 -36.5t244.5 -103t207 -160t160 -207t103.5 -244.5t36.5 -272.5t-36.5 -272.5
t-103.5 -244.5t-160 -207t-207 -160t-244.5 -103.5t-272.5 -37t-272.5 37t-244.5 103.5t-207 160t-160 207t-103.5 244.5t-36.5 272.5t36.5 272.5t103.5 244.5t160 207t207 160t244.5 103t272.5 36.5z" />
    <glyph glyph-name="search" unicode="&#xe604;" horiz-adv-x="1630" 
d="M564.5 489q89.5 0 167.5 34t137 92.5t92.5 137t33.5 167.5t-33.5 167t-92.5 135.5t-137 91t-167.5 33.5t-167 -33.5t-135 -91t-91.5 -135.5t-34 -167t34 -167.5t91.5 -137t135 -92.5t167 -34zM565 353q-235 0 -400 167t-165 400t166 399t399 166t399.5 -165.5
t166.5 -399.5q0 -166 -93 -313l277 -278q53 -53 103.5 -103t89.5 -89.5t64.5 -64t33.5 -32.5q24 -24 24 -71.5t-24 -72.5q-41 -42 -88 -42t-80 33l-284 283q-122 121 -276 277q-151 -94 -313 -94z" />
    <glyph glyph-name="search_alt" unicode="&#xe605;" 
d="M1211 926q0 107 -33.5 185t-91 135.5t-135.5 91t-166 33.5t-165.5 -33.5t-135.5 -91t-91.5 -135.5t-33.5 -210t125 -257t301 -125q124 0 236 71q115 -117 181 -183t103.5 -104t67.5 -67.5t49 -48t20 -19.5q25 -25 59.5 -25t60.5 25q25 25 25 60t-25 60l-421 422
q70 109 70 216zM556.5 1174.5q94.5 94.5 228.5 94.5t229 -96t95 -228.5t-95 -227.5t-229 -95t-228.5 93.5t-94.5 229t94.5 230zM1024 1755q142 0 272.5 -36.5t244.5 -103t207 -160t160 -207t103.5 -244.5t36.5 -272.5t-36.5 -272.5t-103.5 -244.5t-160 -207t-207 -160
t-244.5 -103.5t-272.5 -37t-272.5 37t-244.5 103.5t-207 160t-160 207t-103.5 244.5t-36.5 272.5t36.5 272.5t103.5 244.5t160 207t207 160t244.5 103t272.5 36.5z" />
    <glyph glyph-name="share" unicode="&#xe606;" horiz-adv-x="1317" 
d="M902 417q70 64 168 64t173 -73.5t75 -177.5t-74.5 -178.5t-178.5 -74.5t-177.5 75t-73.5 177q0 37 10 60l-408 250q-71 -58 -169 -58t-172.5 72.5t-74.5 176.5t74 178t173 74t169 -62l408 254q-10 22 -10 66q0 96 73.5 170.5t177.5 74.5t178.5 -74.5t74.5 -178t-75 -177
t-171 -73.5q-97 0 -170 60l-408 -250q10 -50 10 -63t-10 -60z" />
    <glyph glyph-name="share_alt" unicode="&#xe607;" 
d="M1237 561q-48 0 -99 -42l-276 170q5 23 5 43t-5 41l276 171q51 -42 98 -42q48 0 79 13.5t54.5 36.5t36.5 54.5t13 67t-13 66t-36.5 53.5t-54 36.5t-83 13.5t-103 -49t-50.5 -121q0 -19 6 -42l-278 -170q-50 41 -98 41t-79 -14t-54.5 -36.5t-36.5 -53.5t-13 -84.5
t49.5 -103t115.5 -49.5t116 41l278 -170q-6 -23 -6 -50t13 -58t36.5 -54.5t54.5 -37t66.5 -13.5t66 13.5t54 37t36.5 54t13 66t-13 67t-36.5 54.5t-54 36.5t-78.5 13.5zM1024 1755q142 0 272.5 -36.5t244.5 -103t207 -160t160 -207t103.5 -244.5t36.5 -272.5t-36.5 -272.5
t-103.5 -244.5t-160 -207t-207 -160t-244.5 -103.5t-272.5 -37t-272.5 37t-244.5 103.5t-207 160t-160 207t-103.5 244.5t-36.5 272.5t36.5 272.5t103.5 244.5t160 207t207 160t244.5 103t272.5 36.5z" />
    <glyph glyph-name="link" unicode="&#xe608;" horiz-adv-x="1508" 
d="M1343 396q0 41 -29 71l-205 205q-31 31 -72 31t-69 -31l-21 -18l47 -47q18 -18 46 -45t28.5 -62t-24.5 -59t-58.5 -24t-57.5 24q-2 2 -17 16.5t-35 34.5l-45 45l-18 -19q-30 -30 -30 -70t30 -71l206 -207q27 -27 69.5 -27t71.5 27l154 156q29 29 29 70zM440 962.5
q0 34.5 24 58.5t59 24t58 -24l96 -96l20 18q29 31 29 71t-29 71l-206 206q-31 29 -73 29t-67 -29l-156 -155q-29 -27 -29 -69q0 -41 29 -73l205 -205q28 -28 71 -28t71 28l18 19l-96 96q-24 24 -24 58.5zM1431 584q78 -78 78 -187t-78 -189l-154 -154q-81 -77 -189 -77
t-187 77l-204 207q-78 78 -78 186.5t78 186.5l18 20l-38 37l-18 -19q-81 -77 -188 -77t-188 77l-205 206q-78 76 -78 186q0 111 78 189l154 155q81 77 190 77q108 0 185 -77l206 -207q77 -77 77 -187t-77 -188l-20 -18l38 -38l19 19q77 77 187 77t187 -77z" />
    <glyph glyph-name="link_alt" unicode="&#xe609;" 
d="M981 615q-59 -63 -59 -144t59 -142l156 -158q61 -58 143 -58t144 58l118 119q59 61 59 143t-59 143l-158 157q-58 59 -142 59t-143 -59l-16 -14l-28 28l15 14q59 61 59 142t-59 145l-157 158q-61 58 -143 58t-144 -58l-117 -119q-59 -59 -59 -143t59 -143l156 -158
q64 -58 151 -58t150 73l29 -28zM1474 433q0 -32 -21 -54l-118 -118q-22 -22 -54 -22t-54 22l-157 158q-23 19 -23 51t23 57l13 15l36 -36q14 -14 24.5 -26t21.5 -22t36.5 -10t44.5 18t19 44.5t-17 44.5t-40 39l-35 36l14 13q24 24 55 24t53 -24l158 -156q21 -22 21 -54z
M808.5 711q-32.5 0 -53.5 22l-156 157q-23 23 -23 55t23 53l118 119q23 21 52 21t55 -21l157 -159q23 -21 22 -55t-37 -66l-73 74q-18 18 -44 18t-46 -18q-19 -19 -19 -45t19 -45l75 -74l-15 -14q-22 -22 -54.5 -22zM1024 1755q142 0 272.5 -36.5t301.5 -136.5t310.5 -336
t139.5 -515t-139 -514.5t-374 -372.5t-511 -137t-511 137t-374 372.5t-139 514.5t176 577.5t441 372.5t407 74z" />
    <glyph glyph-name="external_link" unicode="&#xe610;" horiz-adv-x="1484" 
d="M557.5 462q-18.5 0 -36 7.5t-31.5 21.5q-28 28 -28 67.5t28 67.5l296 297h-595v-731h731v595q-83 -82 -148 -147l-102 -102q-24 -24 -42 -43t-36 -26t-36.5 -7zM1389 1485q39 0 67.5 -28.5t28.5 -66.5v-517q0 -40 -28 -68t-68 -28t-68 28t-28 68v285l-178 -179v-883
q0 -40 -28.5 -68t-69.5 -28h-922q-40 0 -67.5 28t-27.5 68v922q0 40 27.5 69.5t67.5 29.5h884l178 176h-284q-40 0 -61 21t-28.5 38.5t-7.5 46t27.5 57.5t69.5 29h516z" />
    <glyph glyph-name="external_link_alt" unicode="&#xe611;" 
d="M877.5 507q31.5 0 53.5 23l238 238v-475h-583v582h475l-238 -237q-23 -23 -23 -54t23 -54t54.5 -23zM1615 1246q0 32 -22.5 53.5t-54.5 21.5h-410q-32 0 -53.5 -21.5t-21.5 -53.5t21.5 -54.5t53.5 -22.5h226l-140 -142h-704q-32 0 -54.5 -22t-22.5 -53v-736
q0 -32 22.5 -53.5t54.5 -21.5h735q32 0 54 21.5t22 53.5v704l142 142v-227q0 -32 21.5 -54t53.5 -22t54.5 22t22.5 54v411zM1024 1755q142 0 272.5 -36.5t301.5 -136.5t310.5 -336t139.5 -515t-139 -514.5t-374 -372.5t-511 -137t-511 137t-374 372.5t-139 514.5t176 577.5
t441 372.5t407 74z" />
    <glyph glyph-name="audio_mute" unicode="&#xe612;" horiz-adv-x="864" 
d="M864 1384v-1303q0 -16 -11 -30t-27 -14t-32 16l-392 389h-298q-42 0 -73 31t-31 73v372q0 43 30.5 73t73.5 30h298l392 392q20 20 45 11t25 -40z" />
    <glyph glyph-name="audio_low" unicode="&#xe613;" horiz-adv-x="1232" 
d="M1098 1049q134 -132 134 -317t-134 -317l-125 127q75 81 75 191.5t-75 191.5zM864 1384v-1303q0 -16 -11 -30t-27 -14t-32 16l-392 389h-298q-42 0 -73 31t-31 73v372q0 43 30.5 73t73.5 30h298l392 392q20 20 45 11t25 -40z" />
    <glyph glyph-name="audio_medium" unicode="&#xe614;" horiz-adv-x="1594" 
d="M1408 735q0 261 -183 446l129 126q120 -120 179.5 -269t59.5 -305t-59.5 -305t-179.5 -269l-129 128q183 187 183 448zM1098 1049q134 -132 134 -317t-134 -317l-125 127q75 81 75 191.5t-75 191.5zM864 1384v-1303q0 -16 -11 -30t-27 -14t-32 16l-392 389h-298
q-42 0 -73 31t-31 73v372q0 43 30.5 73t73.5 30h298l392 392q20 20 45 11t25 -40z" />
    <glyph glyph-name="audio_max" unicode="&#xe615;" horiz-adv-x="1954" 
d="M1953 733.5q0 -151.5 -57.5 -376.5t-286.5 -454l-127 128q192 192 241.5 383t49.5 319.5t-49.5 320t-241.5 385.5l127 124q227 -229 285.5 -453.5t58.5 -376zM1408 735q0 261 -183 446l129 126q120 -120 179.5 -269t59.5 -305t-59.5 -305t-179.5 -269l-129 128
q183 187 183 448zM1098 1049q134 -132 134 -317t-134 -317l-125 127q75 81 75 191.5t-75 191.5zM864 1384v-1303q0 -16 -11 -30t-27 -14t-32 16l-392 389h-298q-42 0 -73 31t-31 73v372q0 43 30.5 73t73.5 30h298l392 392q20 20 45 11t25 -40z" />
    <glyph glyph-name="audio_mute_alt" unicode="&#xe616;" 
d="M853 197q27 0 32 32v1004q0 22 -20 30t-35 -7l-302 -302h-229q-33 0 -56.5 -23.5t-23.5 -56.5v-287q0 -33 23.5 -57t56.5 -24h227q1 0 1 0.5t1 0.5l302 -301q9 -9 23 -9zM1024 1755q142 0 272.5 -36.5t301.5 -136.5t310.5 -336t139.5 -515t-139 -514.5t-374 -372.5
t-511 -137t-511 137t-374 372.5t-139 514.5t176 577.5t441 372.5t407 74z" />
    <glyph glyph-name="audio_low_alt" unicode="&#xe617;" 
d="M1066 485q101 103 101 247t-101 245l-99 -98q62 -62 62 -148t-62 -148zM853 197q27 0 32 32v1004q0 22 -20 30t-35 -7l-302 -302h-229q-33 0 -56.5 -23.5t-23.5 -56.5v-287q0 -33 23.5 -57t56.5 -24h227q1 0 1 0.5t1 0.5l302 -301q9 -9 23 -9zM1024 1755
q142 0 272.5 -36.5t301.5 -136.5t310.5 -336t139.5 -515t-139 -514.5t-374 -372.5t-511 -137t-511 137t-374 372.5t-139 514.5t176 577.5t441 372.5t407 74z" />
    <glyph glyph-name="audio_medium_alt" unicode="&#xe618;" 
d="M1305 731.5q0 -201.5 -142 -345.5l99 -98q91 91 137 207t46 236t-46 236t-137 208l-99 -98q142 -144 142 -345.5zM1066 485q101 103 101 247t-101 245l-99 -98q62 -62 62 -148t-62 -148zM885 1233q0 22 -20 30t-35 -7l-302 -302h-229q-33 0 -56.5 -23.5t-23.5 -56.5v-287
q0 -33 23.5 -57t56.5 -24h229l302 -300q8 -9 18 -9q36 0 37 32v1004zM1024 1755q142 0 272.5 -36.5t301.5 -136.5t310.5 -336t139.5 -515t-139 -514.5t-374 -372.5t-511 -137t-511 137t-374 372.5t-139 514.5t176 577.5t441 372.5t407 74z" />
    <glyph glyph-name="audio_max_alt" unicode="&#xe619;" 
d="M1584 730q0 -316 -224 -540l98 -99q173 173 219 348t46 292t-45.5 291.5t-219.5 348.5l-98 -98q224 -227 224 -543zM1305 730.5q0 -202.5 -142 -344.5l99 -98q91 91 137 207t46 305t-183 374l-99 -99q142 -142 142 -344.5zM1066 483q101 103 101 248.5t-101 244.5
l-99 -98q62 -62 62 -147.5t-62 -147.5zM853 197q27 0 32 30v1006q1 21 -19 29t-36 -7l-302 -301h-229q-33 0 -56.5 -23.5t-23.5 -56.5v-288q0 -33 23.5 -56.5t56.5 -23.5h229l302 -300q8 -9 23 -9zM1024 1755q142 0 272.5 -36.5t301.5 -136.5t310.5 -336t139.5 -515
t-139 -514.5t-374 -372.5t-511 -137t-511 137t-374 372.5t-139 514.5t176 577.5t441 372.5t407 74z" />
    <glyph glyph-name="favorite" unicode="&#xe620;" horiz-adv-x="1576" 
d="M0 889q0 39 30.5 70.5t83.5 40.5l389 56l172 351q38 78 111 78t115 -80l171 -349l386 -56q55 -9 86.5 -40.5t31.5 -79.5t-46 -95l-281 -273l71 -415q0 -78 -60.5 -108t-130.5 9l-343 179l-345 -180q-65 -42 -132.5 1.5t-51.5 124.5q0 7 69 389q-179 175 -234 228
q-62 59 -77 84.5t-15 64.5z" />
    <glyph glyph-name="favorite_alt" unicode="&#xe621;" 
d="M1691 858q0 40 -26.5 68t-71.5 35l-327 47l-147 294q-33 68 -95 68t-96 -65l-146 -297l-329 -47q-45 -7 -70.5 -34.5t-25.5 -55.5t8.5 -51.5t24.5 -38.5t41.5 -39t72.5 -70t128 -125q-44 -233 -50 -278t-10 -65t8.5 -48t52.5 -54t96 8l294 153l290 -152q63 -32 116.5 -4
t43.5 88l-57 352l237 231q38 40 38 80zM1024 1755q142 0 272.5 -36.5t302 -136.5t310.5 -335.5t139 -514.5t-175.5 -577t-441 -373t-407.5 -75t-272.5 37t-244.5 103.5t-207 160.5t-160 207.5t-103.5 244t-36.5 272t36.5 272.5t103.5 244.5t160 207t207 160t244.5 103
t272.5 36.5z" />
    <glyph glyph-name="unfavorite" unicode="&#xe622;" horiz-adv-x="1574" 
d="M788 346q19 0 34 -9l325 -171l-59 362q-7 43 23 67l262 258l-364 54q-39 4 -58 43l-164 330l-164 -330q-18 -37 -58 -43l-363 -54l261 -258q31 -25 24 -67l-62 -362l327 171q17 9 36 9zM1543.5 960q31.5 -32 31.5 -78t-46 -96l-280 -273l69 -415q0 -76 -59.5 -107
t-129.5 8l-342 178l-347 -179q-66 -42 -113 -11t-62 63t-11 56t10 55q5 31 10 59t12.5 69t17 96.5t22.5 127.5l-284 276q-42 43 -42 91t30.5 80t82.5 41l390 55l171 351q38 78 111 78t116 -80l171 -349l386 -55q54 -9 85.5 -41z" />
    <glyph glyph-name="unfavorite_alt" unicode="&#xe623;" 
d="M1691 858q0 40 -26.5 68t-71.5 35l-327 47l-147 294q-33 68 -95 68t-96 -65l-146 -297l-329 -47q-45 -7 -70.5 -34.5t-25.5 -55.5t8.5 -51.5t24.5 -38.5t41.5 -39t72.5 -70t128 -125q-44 -233 -50 -278t-10 -65t8.5 -48t52.5 -54t96 8l294 153l290 -152q63 -32 116.5 -4
t43.5 88l-57 352l237 231q38 40 38 80zM1023.5 405q-16.5 0 -29.5 -7l-276 -144l52 306q5 37 -20 58l-221 216l305 46q33 4 52 37l137 280l138 -280q19 -33 52 -37l306 -46l-222 -216q-23 -21 -18 -58l50 -306l-276 144q-13 7 -29.5 7zM1024 1755q142 0 272.5 -36.5
t302 -136.5t310.5 -335.5t139 -514.5t-175.5 -577t-441 -373t-407.5 -75t-272.5 37t-244.5 103.5t-207 160.5t-160 207.5t-103.5 244t-36.5 272t36.5 272.5t103.5 244.5t160 207t207 160t244.5 103t272.5 36.5z" />
    <glyph glyph-name="bookmark" unicode="&#xe624;" horiz-adv-x="1024" 
d="M981 1485q18 0 30.5 -13t12.5 -30v-1521q0 -27 -27 -37.5t-46 9.5l-439 438l-439 -440q-18 -18 -45.5 -7.5t-27.5 37.5v1521q0 17 12.5 30t28.5 13h940z" />
    <glyph glyph-name="bookmark_alt" unicode="&#xe625;" 
d="M1427 1331q0 34 -33 34h-741q-13 0 -22.5 -9.5t-9.5 -24.5v-1197q0 -23 21 -31.5t37 7.5l346 346l344 -346q17 -17 37.5 -7.5t20.5 31.5v1197zM1024 1755q142 0 272.5 -36.5t302 -136.5t310.5 -335.5t139 -514.5t-175.5 -577t-441 -373t-407.5 -75t-272.5 37
t-244.5 103.5t-207 160.5t-160 207.5t-103.5 244t-36.5 272t36.5 272.5t103.5 244.5t160 207t207 160t244.5 103t272.5 36.5z" />
    <glyph glyph-name="unbookmark" unicode="&#xe626;" horiz-adv-x="1053" 
d="M526 485q34 0 58 -24l310 -310v1172h-734v-1172l311 310q21 24 55 24zM0 -41v1444q0 33 23.5 57.5t56.5 24.5h894q33 0 56.5 -24t23.5 -58v-1444q0 -56 -50 -77t-86 19l-390 390l-392 -390q-39 -39 -87.5 -17t-48.5 75z" />
    <glyph glyph-name="unbookmark_alt" unicode="&#xe627;" 
d="M721 1264h608v-970l-256 255q-21 21 -49 21t-46 -21l-257 -255v970zM1461 135v1196q0 27 -19 47t-48 20h-739q-29 0 -47.5 -19.5t-18.5 -47.5v-1196q0 -47 40.5 -64t72.5 15l323 323l324 -323q30 -32 71 -13.5t41 62.5zM1024 1755q142 0 272.5 -36.5t302 -136.5
t310.5 -335.5t139 -514.5t-175.5 -577t-441 -373t-407.5 -75t-272.5 37t-244.5 103.5t-207 160.5t-160 207.5t-103.5 244t-36.5 272t36.5 272.5t103.5 244.5t160 207t207 160t244.5 103t272.5 36.5z" />
    <glyph glyph-name="settings" unicode="&#xe628;" horiz-adv-x="1755" 
d="M1083 525q86 86 86 207t-86 207t-206 86t-206 -86t-86 -207t86 -207t206 -86t206 86zM1755 857v-255q0 -13 -9 -25t-24 -15l-208 -32q-13 -44 -44 -101q30 -42 60 -82t56 -76t7 -57q-99 -127 -155 -167.5t-70 -40.5t-27 10l-159 123q-42 -22 -103 -43q-17 -143 -33 -209
q-11 -33 -41 -33h-254q-17 0 -28.5 10t-13.5 24l-31 208q-66 24 -102 41l-165 -121q-27 -19 -53 3q-197 172 -198 205t48.5 96t77.5 103q-35 72 -46 110l-207 33q-33 7 -33 41v252q0 14 9 28t23 16l210 31q13 43 44 105q-32 44 -83 110q-50 65 -51.5 75.5t8.5 22.5t26.5 31
t89.5 99t105 80q18 0 35 -14l159 -120q44 26 102 45q19 158 26 190q8 33 19.5 42t28.5 9h254q34 0 41 -35l33 -206q64 -24 100 -42l165 120q13 9 27.5 8.5t32.5 -16.5t44 -38.5t66 -61.5t65 -76q27 -37 3 -71t-54 -72.5t-58 -77.5q34 -73 44 -111l208 -31q33 -11 33 -42z
" />
    <glyph glyph-name="settings_alt" unicode="&#xe629;" 
d="M928 1398q-26 0 -32 -25q-9 -38 -14 -79t-10 -79q-41 -14 -78 -34l-120 91q-13 10 -26.5 10t-94.5 -78t-79.5 -93t41 -65.5t61.5 -80.5q-26 -54 -34 -79l-158 -24q-25 -5 -25 -33v-191q0 -26 25 -31l158 -26q8 -27 34 -83q-21 -30 -44 -59t-42 -55t-4 -45
q36 -54 144 -147q19 -18 41 -2l124 91q31 -15 78 -32l23 -158q5 -25 32 -25h193q23 0 34 42t22 141q19 7 38.5 16t39.5 18l121 -93q10 -8 22 -8q22 0 86.5 67t80.5 86q17 19 -3 47t-43 58t-46 62q27 51 34 77l158 24q11 2 18 12t7 19v193q0 26 -25 32l-158 24q-7 21 -34 84
q22 30 45.5 58.5t41.5 54.5t-9 65q-26 39 -132 127q-19 17 -41 1l-124 -90q-39 17 -77 32l-25 156q-3 26 -31 27h-193zM1024 510q-46 0 -86.5 17.5t-70 47.5t-47.5 70.5t-18 86t18 86.5t47.5 71.5t70 48t86.5 17.5t86.5 -17.5t70 -48t47.5 -71.5t18 -86.5t-18 -86
t-47.5 -70.5t-70 -47.5t-86.5 -17.5zM1024 1755q142 0 272.5 -36.5t302 -136.5t310.5 -335.5t139 -514.5t-175.5 -577t-441 -373t-407.5 -75t-272.5 37t-244.5 103.5t-207 160.5t-160 207.5t-103.5 244t-36.5 272t36.5 272.5t103.5 244.5t160 207t207 160t244.5 103
t272.5 36.5z" />
    <glyph glyph-name="menu" unicode="&#xe630;" horiz-adv-x="2053" 
d="M1902 886q66 0 109 -44.5t43 -93.5q0 -82 -43 -126.5t-109 -44.5h-1748q-65 0 -109.5 44.5t-44.5 110.5t44.5 110t109.5 44h1748zM1902 306q66 0 109 -44.5t43 -108t-43 -108.5t-109 -45h-1748q-66 0 -110 45.5t-44 108.5t44.5 107.5t109.5 44.5h1748zM154 1158
q-65 0 -109.5 43t-44.5 107t44 109.5t110 45.5h1748q102 0 127 -61.5t25 -93.5q0 -64 -43 -107t-109 -43h-1748z" />
    <glyph glyph-name="menu_alt" unicode="&#xe631;" 
d="M1590 1007q41 0 70 29t29 70t-29 70.5t-70 29.5h-1132q-41 0 -70 -29.5t-29 -70.5t29 -70t70 -29h1132zM1590 632q41 0 70 29t29 71t-29 71t-70 29h-1132q-41 0 -70 -29t-29 -71t29 -71t70 -29h1132zM1590 258q41 0 70 29.5t29 70.5t-29 70t-70 29h-1132q-41 0 -70 -29
t-29 -70t29 -70.5t70 -29.5h1132zM1024 1755q142 0 272.5 -36.5t302 -136.5t310.5 -335.5t139 -514.5t-175.5 -577t-441 -373t-407.5 -75t-272.5 37t-244.5 103.5t-207 160.5t-160 207.5t-103.5 244t-36.5 272t36.5 272.5t103.5 244.5t160 207t207 160t244.5 103t272.5 36.5
z" />
    <glyph glyph-name="lock" unicode="&#xe632;" horiz-adv-x="1210" 
d="M873 955v140q0 112 -78 190t-190 78t-190 -78t-78 -190v-140h536zM735 580q0 36 -10.5 59.5t-28 41t-41.5 28t-64 10.5t-78.5 -38.5t-38.5 -86.5q0 -95 88 -129v-220q0 -18 13 -31.5t31 -13.5t30.5 13t12.5 32v220q37 15 61.5 47t24.5 68zM1210 739v-522
q0 -89 -62.5 -153t-153.5 -64h-777q-93 0 -155 63.5t-62 153.5v522q0 127 72 167t111 46v143q0 176 124 300t298 124t298 -124t124 -300v-143q80 -12 131.5 -71t51.5 -142z" />
    <glyph glyph-name="lock_alt" unicode="&#xe633;" 
d="M1507 718q0 102 -57 133t-88 36v114q0 139 -99 238t-239 99t-238.5 -98.5t-98.5 -238.5v-114q-99 -16 -122.5 -76.5t-23.5 -92.5v-420q0 -71 50.5 -121.5t121.5 -50.5h622q71 0 121.5 50.5t50.5 121.5v420zM1024 1755q142 0 272.5 -36.5t302 -136.5t310.5 -335.5
t139 -514.5t-175.5 -577t-441 -373t-407.5 -75t-272.5 37t-244.5 103.5t-207 160.5t-160 207.5t-103.5 244t-36.5 272t36.5 272.5t103.5 244.5t160 207t207 160t244.5 103t272.5 36.5zM1175.5 1152.5q63.5 -63.5 63.5 -151.5v-111h-430v111q0 89 63 152t151.5 63t152 -63.5z
M1024 699q43 0 73.5 -30.5t30.5 -68.5t-20 -64.5t-50 -37.5v-179q0 -15 -9.5 -24.5t-24.5 -9.5t-24.5 9.5t-9.5 24.5v179q-30 10 -50 37t-20 65t30.5 68.5t73.5 30.5z" />
    <glyph glyph-name="unlock" unicode="&#xe634;" horiz-adv-x="1210" 
d="M696 676q-37 39 -76 39q-70 0 -108 -39t-38 -85q0 -47 24 -80t64 -46v-223q0 -18 13 -30t31 -12t29.5 12t11.5 30v223q38 13 62 46t24 79q0 47 -37 86zM993 955q87 0 152 -63.5t65 -152.5v-522q0 -92 -64.5 -154.5t-152.5 -62.5h-776q-90 0 -153.5 62t-63.5 155v522
q0 112 59.5 154.5t92.5 53.5l-37 114q-49 170 31 322q79 152 245 205t322 -26q153 -80 212 -247q9 -31 -7 -59t-48 -38t-58 4.5t-40 54.5t-47.5 81t-81.5 66q-101 53 -203 18q-105 -31 -160 -130q-50 -97 -15 -205l48 -152h680z" />
    <glyph glyph-name="unlock_alt" unicode="&#xe635;" 
d="M1507 680q0 71 -51 122t-121 51h-545l-39 121q-27 84 15 163q40 80 125 106q85 25 164 -14t106 -126q8 -25 30.5 -37t46.5 -4t36 31t-2 67t-56.5 95t-103.5 83q-126 65 -259 22t-197 -166q-63 -124 -22 -258l29 -91q-54 -16 -88 -61.5t-34 -103.5v-419q0 -72 50.5 -122.5
t121.5 -50.5h622q71 0 121.5 50.5t50.5 122.5v419zM1024 1755q142 0 272.5 -36.5t302 -136.5t310.5 -335.5t139 -514.5t-175.5 -577t-441 -373t-407.5 -75t-272.5 37t-244.5 103.5t-207 160.5t-160 207.5t-103.5 244t-36.5 272t36.5 272.5t103.5 244.5t160 207t207 160
t244.5 103t272.5 36.5zM1024 662q43 0 73.5 -30.5t30.5 -68.5t-20 -64.5t-50 -37.5v-179q0 -15 -9.5 -25t-24.5 -10t-24.5 10t-9.5 25v179q-30 11 -50 37.5t-20 64.5t30.5 68.5t73.5 30.5z" />
    <glyph glyph-name="clock" unicode="&#xe636;" horiz-adv-x="1632" 
d="M816 150q133 0 250.5 50.5t205 138t138.5 205t51 250t-51 250t-138.5 205t-205 138.5t-250.5 51t-250 -51t-204.5 -138.5t-138 -205t-50.5 -250t50.5 -250t138 -205t204.5 -138t250 -50.5zM816 1609q112 0 216 -29t195 -82t165.5 -128t128 -166t82.5 -195t29 -216
t-29 -216.5t-109.5 -241.5t-268.5 -247.5t-409 -110.5q-169 0 -317.5 64t-259.5 175t-175 259.5t-64 288.5t29 244.5t82.5 195.5t127.5 166t165 128t195.5 82t216.5 29zM1147 965.5q0 -26.5 -19 -45.5l-269 -266q-21 -20 -45 -20t-42.5 19t-19.5 46v536q0 26 19 45t45 19
t44.5 -18.5t18.5 -45.5v-381l158 157q19 19 45.5 19.5t45.5 -19t19 -46z" />
    <glyph glyph-name="clock_alt" unicode="&#xe637;" 
d="M1024 118q85 0 163 21.5t146 61.5t124.5 96.5t96.5 124.5t62 146.5t22 163t-22 163.5t-82 181.5t-200.5 186t-288.5 83.5t-260 -48.5t-195.5 -132t-132 -195.5t-48.5 -218t22 -184t62.5 -146t96.5 -124.5t124 -96.5t146.5 -61.5t163.5 -21.5zM1024 1755q277 0 512 -137
t373.5 -372t138.5 -514.5t-138.5 -514.5t-374 -372.5t-511.5 -137.5t-511 137t-374 372.5t-139 515t139 515t373.5 372t511.5 136.5zM1273 862q0 20 -14 35q-15 14 -34.5 14t-33.5 -14l-120 -120v287q0 21 -14.5 35t-34.5 14t-34 -14t-14 -35v-403q0 -19 14 -34.5t34 -15.5
t35 15l202 201q14 15 14 35zM1024 1217q101 0 189 -38t153.5 -104.5t104 -154.5t38.5 -188.5t-38.5 -188.5t-104 -154t-153.5 -104t-189 -38t-189.5 38t-154 104t-104 154t-38.5 188.5t38.5 188.5t104 154.5t154 104.5t189.5 38z" />
    <glyph glyph-name="chart" unicode="&#xe638;" horiz-adv-x="1637" 
d="M1385 687h253v-457h-253v457zM128 1609v-1506h1504v-126h-1632v1632h128zM504 1149v-919h-251v919h251zM1261 1149v-919h-254v919h254zM883 1609v-1379h-252v1379h252z" />
    <glyph glyph-name="chart_alt" unicode="&#xe639;" 
d="M1619 302v330h-180v-330h180zM1615 121v90h-1082v1082h-91v-1172h1173zM623 962v-660h182v660h-182zM895 1293v-991h180v991h-180zM1167 962v-660h180v660h-180zM1024 1755q142 0 272.5 -36.5t302 -136.5t310.5 -335.5t139 -514.5t-175.5 -577t-441 -373t-407.5 -75
t-272.5 37t-244.5 103.5t-207 160.5t-160 207.5t-103.5 244t-36.5 272t36.5 272.5t103.5 244.5t160 207t207 160t244.5 103t272.5 36.5z" />
    <glyph glyph-name="play" unicode="&#xe640;" horiz-adv-x="1302" 
d="M0 95v1278q0 74 46 102q46 26 113 -16l1082 -690q64 -42 62 -96t-70 -95l-1070 -580q-68 -38 -116 -10q-47 28 -47 107z" />
    <glyph glyph-name="play_alt" unicode="&#xe641;" 
d="M736 1085v-702q0 -43 27 -58.5t63 4.5l589 321q37 19 38 50t-35 54l-595 379q-35 23 -61 9t-26 -57zM1024 1755q142 0 272.5 -36.5t302 -136.5t310.5 -335.5t139 -514.5t-175.5 -577t-441 -373t-407.5 -75t-272.5 37t-244.5 103.5t-207 160.5t-160 207.5t-103.5 244
t-36.5 272t36.5 272.5t103.5 244.5t160 207t207 160t244.5 103t272.5 36.5z" />
  </font>
</defs>
</svg>
